<svg 
  width="358" 
  height="322" 
  viewBox="0 0 358 322"
  fill="none" 
  xmlns="http://www.w3.org/2000/svg" 
>
  <path fill="#263238"
    d="M160.547 154.974c-7.382.492-14.558-2.665-17.224-4.305h-1.23l-1.231 6.764v7.38l3.076 7.995s2.461 3.075 3.076 3.075c.615 0-8.612 19.064-8.612 19.064v34.438l-1.845 16.605 2.46 6.764c-2.255-.615-3.321-.738 10.457 3.69 13.779 4.428 20.094-9.224 21.53-16.604.615-8.2 1.845-24.107 1.845-22.139s8.612 5.74 12.918 7.379c10.252 3.28 31.74 9.84 35.676 9.84 3.937 0 8.612-1.64 10.458-2.46 6.151-5.535 2.46-20.909 1.845-22.754-.492-1.476-3.486-3.895-4.921-4.92-1.986-1.138-3.466-1.806-7.382-3.075l-16.608-4.304-1.23 3.075c-.063-.565-.447-.972-1.845-1.845l-2.461-4.305-2.46 3.075-2.461 1.23v-1.845l1.23-3.69-1.23-1.845c-.41-.205-1.353-.738-1.845-1.23s-1.025-1.435-1.23-1.845l-.616-5.535c1.494-2.84 4.602-9.938 6.767-14.759 2.179-4.855 2.46-14.554 1.845-19.064l-4.921-6.765c-20.299 14.144-24.605 12.3-33.831 12.915Z" />
  <path fill="#263238"
    d="M146.041 177.014a.734.734 0 0 1-.578-.295c-1.931-2.706-5.462-10.602-5.831-14.243-.369-3.64 1.71-12.299 1.796-12.693a.712.712 0 0 1 .85-.515.713.713 0 0 1 .54.835c0 .098-2.104 8.831-1.771 12.299.332 3.469 3.776 11.07 5.573 13.53a.723.723 0 0 1 .029.792.707.707 0 0 1-.189.204.744.744 0 0 1-.419.086Z" />
  <path fill="#fff"
    d="m156.167 257.415-4.688-.332c5.081-1.365 8.231-9.544 10.199-15.165a96.985 96.985 0 0 1 1.083-2.989c1.747-4.563 1.907-18.769 1.808-24.23-.726-2.57-2.682-8.831-4.06-10.86a3.686 3.686 0 0 1-.59-2.854c.431-2.066 2.547-3.407 4.404-4.575a17.446 17.446 0 0 0 1.809-1.23c.418-2.632 3.481-3.456 5.757-4.059.714-.197 1.39-.381 1.919-.578 2.202-2.017 11.848-20.442 13.964-30.343 1.796-8.351-1.231-11.303-1.231-11.327l2.781-3.248c.516.431 5.007 4.551 2.669 15.473-1.82 8.487-12.364 31.733-16.374 33.344a23.53 23.53 0 0 1-2.584.8c-.919.203-1.814.504-2.669.897-.271 1.722-1.944 2.78-3.691 3.899a15.312 15.312 0 0 0-2.436 1.673c2.018 3.272 4.269 11.168 4.527 12.09l.074.529c0 2.017.32 19.852-2.091 26.124a166.84 166.84 0 0 0-1.034 2.854c-2.202 6.371-2.276 12.164-9.546 14.107Zm79.288-42.654c-3.358-1.648-12.105-3.37-17.346-4.477a226.307 226.307 0 0 1-5.622-1.23 10.412 10.412 0 0 0-7.148.861c-.654.286-1.329.525-2.018.713-2.657.665-4.465-1.943-5.769-3.849-.148-.209-.308-.455-.48-.677-1.661.972-3.949 2.3-6.151 1.673a3.867 3.867 0 0 1-2.362-2.005 16.616 16.616 0 0 1-1.231-3.788c-.406-1.71-.689-2.792-1.538-3.469-2.903-2.312-2.891-3.407-2.952-3.689l2.177-3.555a21.927 21.927 0 0 0 3.445 3.96 9.443 9.443 0 0 1 3.026 5.83c.186.906.458 1.791.812 2.645a11.94 11.94 0 0 0 2.584-1.23 8.027 8.027 0 0 1 1.944-.935c1.931-.48 3.112 1.23 4.244 2.866a14.35 14.35 0 0 0 1.575 2.017c.307-.098.676-.246 1.082-.418a14.508 14.508 0 0 1 9.842-1.033c1.366.344 3.26.738 5.45 1.23a69.726 69.726 0 0 1 15.157 4.723l1.279 3.837Z" />
  <path fill="#263238"
    d="M259.691 237.909a.761.761 0 0 1-.394-.111c-7.947-5.178-25.835-6.641-26.031-6.654a.708.708 0 0 1-.693-.474.714.714 0 0 1 .803-.94c.751 0 18.454 1.5 26.696 6.875a.698.698 0 0 1 .316.727.708.708 0 0 1-.362.491.713.713 0 0 1-.335.086Zm-6.397-13.997a5.868 5.868 0 0 1-1.636-.271c-2.547-.725-15.993-7.945-16.534-8.253a.71.71 0 0 1-.296-.959.723.723 0 0 1 .972-.295c4.786 2.583 14.333 7.589 16.239 8.142a2.858 2.858 0 0 0 1.612.16.71.71 0 0 1 .288-.405.71.71 0 0 1 1.114.565 1.218 1.218 0 0 1-.516.959 2.023 2.023 0 0 1-1.243.357Z" />
  <path fill="#263238"
    d="M260.811 214.404s-6.766 6.593-6.766 7.306c0 .713 4.81 4.981 5.167 6.408.357 1.427 3.568-.357 4.453 0 .886.357.714 2.854-1.783 3.382-2.498.529-2.313 6.95-1.428 7.835.886.886 8.612 4.809 12.832 9.262 4.22 4.452 6.594 8.904 8.365 9.618 1.772.713 3.568 1.23 4.097-2.312.529-3.543 1.07-11.218-3.555-16.74-4.626-5.522-6.594-6.064-8.021-6.064-1.427 0-3.691.185-2.842-1.771.849-1.955 2.842-3.69 2.128-5.35-.713-1.66-6.286-12.103-12.647-11.574Z" />
  <path fill="#263238"
    d="M285.514 260.822a2.839 2.839 0 0 1-2.596-1.402.69.69 0 0 1-.038-.54.71.71 0 0 1 .895-.446.721.721 0 0 1 .411.346c.061.099.541.898 2.042.529 2.054-.516 3.691-1.107 4.109-3.542a25.827 25.827 0 0 0-3.113-15.35 31.802 31.802 0 0 0-5.634-6.42c-1.932-1.808-3.445-3.235-3.556-4.76 0-.553 0-1.107-.061-1.685a13.961 13.961 0 0 0-1.23-6.42c-1.612-3.21-5.438-7.38-9.067-8.917-3.334-1.366-4.847-.763-6.151 2.46a.717.717 0 0 1-1.32-.007.72.72 0 0 1 .003-.547c1.661-3.96 3.998-4.92 8.058-3.235s8.095 6.15 9.842 9.606a15.146 15.146 0 0 1 1.427 7.011c0 .558.025 1.099.074 1.623.062.96 1.476 2.288 3.1 3.813a32.867 32.867 0 0 1 5.881 6.728 27.055 27.055 0 0 1 3.297 16.346c-.615 3.259-2.891 4.096-5.167 4.662a4.233 4.233 0 0 1-1.206.147ZM158.701 149.241c-3.506 0-9.842-.455-13.151-3.53a20.613 20.613 0 0 1-3.445-4.132 13.998 13.998 0 0 0-2.3-2.866 5.278 5.278 0 0 1-1.563-5.658.716.716 0 0 1 1.16-.246.693.693 0 0 1 .169.775 3.851 3.851 0 0 0 1.23 4.084 15.62 15.62 0 0 1 2.461 3.124 19.066 19.066 0 0 0 3.223 3.874c3.42 3.173 11.072 3.21 13.262 3.136a.715.715 0 0 1 0 1.427l-1.046.012Z" />
  <path fill="#263238"
    d="M163.942 155.588a53.324 53.324 0 0 1-17.445-2.73c-7.541-2.952-7.381-6.15-7.074-7.023.094-.322.205-.638.332-.947.296-.738.406-1.009 0-1.673-1.008-1.525-.184-4.834-.086-5.203a.711.711 0 0 1 .861-.516.725.725 0 0 1 .517.873c-.332 1.23-.578 3.345-.098 4.059a2.758 2.758 0 0 1 .184 2.988 5.035 5.035 0 0 0-.283.8c-.332 1.23 1.095 3.308 6.151 5.313 6.152 2.46 21.85 4.502 31.138 0 15.07-7.256 16.141-9.938 16.104-10.59-.037-.652-.099-1.23-.173-1.968a13.28 13.28 0 0 1 .222-5.928c.836-2.165 1.673-4.317.812-7.011a33.883 33.883 0 0 1-.874-7.515c-.086-1.672-.16-3.259-.332-4.464a14.894 14.894 0 0 0-2.005-6.15.707.707 0 0 1-.231-.753.726.726 0 0 1 1.141-.342c1.034.874 2.092 4.293 2.461 7.097.197 1.23.27 2.891.357 4.6.002 2.409.275 4.81.812 7.158 1.008 3.174 0 5.67-.812 7.872a12.292 12.292 0 0 0-.173 5.35c.074.714.148 1.403.185 2.042.074 1.599-1.587 4.575-16.916 11.943-4.109 1.968-9.485 2.718-14.775 2.718Z" />
  <path fill="#263238"
    d="M228.049 156.818a46.508 46.508 0 0 1-9.485-1.23c-2.866-.664-3.432-4.415-3.85-7.158a8.77 8.77 0 0 0-.677-2.768c-1.698-1.131-1.968-2.127-1.968-4.735a6.029 6.029 0 0 0-1.674-3.567 15.635 15.635 0 0 1-1.574-2.46c-.997-1.992-4.454-11.733-3.617-14.538.59-1.955-1.796-6.383-5.733-7.908-4.281-1.673-12.832-6.962-13.188-7.183a.715.715 0 0 1-.234-.984.726.726 0 0 1 .984-.234c.086 0 8.796 5.449 12.955 7.073 4.49 1.746 7.381 6.85 6.581 9.642-.602 2.042 2.276 10.996 3.519 13.53.437.786.943 1.531 1.513 2.226a7.378 7.378 0 0 1 1.956 4.428c0 2.46.234 2.816 1.341 3.554.787.529.997 1.87 1.23 3.69.382 2.46.849 5.535 2.756 5.978 6.594 1.513 14.049 1.906 14.837-.775.664-2.251.381-5.818.123-8.967a30.764 30.764 0 0 1-.148-5.891c.308-2.177-3.691-17.318-6.151-26.358-1.169-4.403-2.091-7.871-2.387-9.249-.861-4.059-25.736-22.065-32.109-24.599-5.487-2.226-13.68-5.153-21.554-4.92a.643.643 0 0 1-.553-.233 27.175 27.175 0 0 0-3.913-3.752l-.43.468c-1.698 1.832-5.672 6.15-11.368 5.412a32.579 32.579 0 0 1-9.103-2.337 2.587 2.587 0 0 1-.64 1.783l-.111.086c-.123.086-3.039 1.907-11.072 1.23-7.75-.701-12.007-1.082-19.438-8.511-2.079-2.079-4.49-4.613-7.061-7.306-5.93-6.359-12.696-13.456-15.28-14.747-2.953-1.476-8.267-2.066-10.186-2.239-.21 2.251-1.304 8.82-6.865 11.07 0 .886.394 3.493 3.801 7.958l1.883 2.46c5.745 7.6 19.216 25.398 23.485 27.23 1.378.59 3.691 1.415 6.323 2.362 7.197 2.583 16.166 5.793 18.835 8.474 2.264 2.251 4.208 10.849 5.93 18.45 1.009 4.427 2.055 9.015 2.67 9.753a14.596 14.596 0 0 0 4.33 2.841 7.861 7.861 0 0 1 2.842 1.857.713.713 0 0 1-.741 1.084.728.728 0 0 1-.452-.296 10.091 10.091 0 0 0-2.289-1.378 15.6 15.6 0 0 1-4.785-3.198c-.8-.947-1.6-4.378-2.965-10.344-1.476-6.715-3.58-15.817-5.548-17.797-2.461-2.46-11.614-5.744-18.306-8.142-2.67-.96-4.921-1.784-6.41-2.46-4.613-1.98-17.752-19.335-24.051-27.674l-1.883-2.46c-4.699-6.15-4.12-9.188-4.035-9.507a.676.676 0 0 1 .456-.505c6.15-2.066 6.397-10.54 6.41-10.626a.713.713 0 0 1 .75-.69c.307 0 7.553.505 11.44 2.46 2.793 1.452 9.363 8.328 15.711 14.982 2.559 2.68 4.921 5.215 7.037 7.28 7.062 7.06 10.9 7.38 18.552 8.106 6.742.615 9.571-.664 10.051-.922.147-.337.21-.704.185-1.07 0-.406 0-1.34.873-1.34.306.038.603.134.874.282a30.683 30.683 0 0 0 8.943 2.337c4.921.627 8.612-3.296 10.15-4.92.273-.345.597-.648.959-.898.419-.197 1.231-.578 5.266 3.96 8.021-.147 16.276 2.793 21.812 5.043 6.41 2.62 31.9 20.663 32.958 25.682.283 1.34 1.23 4.796 2.375 9.175 3.58 13.382 6.508 24.599 6.151 26.924a29.861 29.861 0 0 0 .16 5.584c.258 3.271.553 6.973-.185 9.47-.64 2.263-3.654 2.952-6.988 2.952Z" />
  <path fill="#263238"
    d="M155.121 81.262a19.855 19.855 0 0 1-6.458-1.045c-7.111-2.46-7.037-4.858-6.951-5.313a.715.715 0 1 1 1.415.221c0 .123.283 1.771 6.003 3.69a19.97 19.97 0 0 0 21.775-6.654.716.716 0 0 1 .475-.265.705.705 0 0 1 .522.154.725.725 0 0 1 .111 1.009 21.648 21.648 0 0 1-16.892 8.203Z" />
  <path fill="#E8E8E8" d="M92.846 24.93 4.736 9.496l81.455 2.854 6.655 12.582Z" />
  <path fill="#D9D9D9" d="M78.342 12.066V8.068L4.736 9.495l73.606 2.57Z" />
  <path fill="#E8E8E8" d="M83.115 7.982 67.909 0 4.736 9.495l78.379-1.513Z" />
  <path fill="#263238"
    d="M74.798 54.487a.665.665 0 0 1-.541-.246c-.11-.123-10.925-12.681-14.148-15.215-.664-.516-1.353-1.082-2.067-1.66a42.64 42.64 0 0 0-9.534-6.47c-4.429-1.87-10.088-10.97-10.322-11.364a.717.717 0 1 1 1.23-.738c0 .086 5.66 9.089 9.682 10.798 3.519 1.489 6.89 4.244 9.842 6.667l2.043 1.648c3.346 2.62 13.901 14.882 14.357 15.411a.703.703 0 0 1-.074.996.69.69 0 0 1-.468.173Z" />
  <path fill="#9E9E9E"
    d="M53.208 17.883 6.63 9.495 54.906 24.01l-1.698-6.126Zm8.797 8.253 17.309 5.203 1.23-8.548-20.57-3.69s.456 2.67.714 3.69c.36 1.145.8 2.263 1.316 3.345Z" />
  <path fill="#263238"
    d="M148.859 73.907h-.197a.72.72 0 0 1-.516-.606.73.73 0 0 1 .024-.28s1.341-4.735 0-7.994a.715.715 0 0 1 .945-.976.71.71 0 0 1 .371.447c1.514 3.69.087 8.708 0 8.917a.706.706 0 0 1-.627.492Zm15.895-2.484a.717.717 0 0 1-.578-.295c-1.944-2.681-5.192-7.38-5.069-8.696a.725.725 0 0 1 .775-.64.738.738 0 0 1 .652.775c0 .75 2.46 4.6 4.798 7.724a.718.718 0 0 1 .029.793.709.709 0 0 1-.607.339Zm79.608 110.794a2.438 2.438 0 0 1-.504-.062c-1.969-.43-9.67-8.314-11.072-10.233a11.384 11.384 0 0 0-4.048-3.222 7.825 7.825 0 0 0-1.427 3.689c-.147 1.821-.43 3.604-1.488 4.33a1.96 1.96 0 0 1-1.735.209c-2.19-.664-1.858-2.694-1.39-5.498l.16-.996a21.41 21.41 0 0 1 2.46-6.236c.197-.369.406-.775.517-1.021-.566-.947-2.879-4.76-4.466-7.38a.726.726 0 0 1 .234-.983.707.707 0 0 1 .794.028.715.715 0 0 1 .19.205c.75 1.23 4.466 7.294 4.638 7.65.172.357 0 .849-.652 2.116a20.16 20.16 0 0 0-2.301 5.805l-.172.997c-.48 2.927-.504 3.628.394 3.898.344.111.467 0 .529 0 .64-.43.812-2.558.873-3.259a7.938 7.938 0 0 1 2.178-4.92 1.05 1.05 0 0 1 .886-.147 12.7 12.7 0 0 1 4.921 3.813c1.894 2.459 9.079 9.446 10.272 9.704.135 0 .369.061.431-.062.061-.123 0-1.107-1.058-2.103-1.415-1.23-6.078-7.38-5.672-8.794a.868.868 0 0 1 .665-.615c.664-.135 1.328.344 5.13 3.69 1.956 1.734 4.921 4.342 5.659 4.489.284.056.572.097.861.123a7.158 7.158 0 0 0-.517-.787c-.59-.824-1.759-2.103-2.891-3.345a32.914 32.914 0 0 1-3.752-4.527.714.714 0 0 1 .839-1.015.728.728 0 0 1 .428.339 33.957 33.957 0 0 0 3.531 4.243c1.23 1.329 2.362 2.583 3.002 3.469.639.885 1.23 1.808.726 2.46-.505.651-1.501.59-2.461.381-.96-.209-3.088-1.956-6.323-4.809-.862-.763-1.895-1.685-2.731-2.374a33.443 33.443 0 0 0 4.502 5.965c1.366 1.23 1.919 2.755 1.378 3.801a1.62 1.62 0 0 1-1.538.984Z" />
  <path fill="#263238"
    d="M251.571 176.264a6.832 6.832 0 0 1-2.878-.812.713.713 0 0 1 .701-1.23c.746.43 1.6.639 2.46.603l.062-.074s0-.418-1.366-1.661a72.164 72.164 0 0 1-6.151-7.379.839.839 0 0 1 0-.972c.849-1.033 8.107 2.362 8.181 2.46.049.01.099.01.148 0 0 0 0-.578-.91-1.341-1.132-.922-7.468-3.247-16.966-6.223l-.172-.062c-2.017-.627-2.866-3.493-2.952-3.813a.714.714 0 0 1 1.365-.381c.197.664.923 2.46 2.006 2.841h.172c7.037 2.214 15.784 5.129 17.445 6.482 1.66 1.353 1.623 2.558 1.23 3.247a1.466 1.466 0 0 1-1.944.443c-.738-.369-3.469-1.451-5.29-2.079a58.501 58.501 0 0 0 4.921 5.72c1.292 1.23 1.833 2.054 1.808 2.792a1.542 1.542 0 0 1-.639 1.143c-.36.248-.798.353-1.231.296ZM138.697 12.078s-8.808 2.263-9.99 7.085c-1.181 4.82 0 9.84 3.802 9.335 3.801-.505 8.784-3.8 12.105-3.567 3.322.234 2.621 1.488 1.428 3.591-1.194 2.104.947 5.67 6.889 4.01 5.942-1.66 6.151-4.748 10.445-3.567 4.293 1.18.381 10.922 1.378 12.3.996 1.377 1.23 3.32 3.469 0 2.239-3.321 5.61-7.835 9.165-6.642 3.555 1.193-3.322 8.068-6.877 9.495l-3.568 1.427s-1.427 9.962-3.567 11.39c0 0 14.258-1.895 19.683-6.889 5.426-4.993.714-4.92 1.661-7.588.948-2.67 6.41-2.805 6.41-6.04 0-3.234-.714-2.754-5.696-5.128-4.983-2.374-3.568-3.555-2.854-4.748.713-1.193 1.427-3.32-2.608-4.514-4.036-1.193-13.533-4.034-11.786-6.641 1.747-2.608 2.657-7.835-3.469-7.38-6.127.455-11.983 4.44-15.465 4.01-3.481-.431-6.692-1.353-10.555.061Z" />
  <path fill="#263238"
    d="M150.323 65.765h-.172l-1.6-.356c-4.146-.91-12.77-2.793-17.371-6.052-5.622-3.985-4.601-13.898-3.592-17.06 1.009-3.16 3.285-13.848 3.309-14.008a.695.695 0 0 1 .32-.455.658.658 0 0 1 .542-.087c.143.014.287.014.43 0a.735.735 0 0 1 .234-.073 23.508 23.508 0 0 0 5.413-1.747c2.46-1.008 4.847-1.968 6.828-1.82 1.095.086 2.46.283 2.903 1.23.443.947-.111 2.054-.898 3.444a1.955 1.955 0 0 0 .234 2.152c.984 1.23 3.174 1.587 5.831.837a16.668 16.668 0 0 0 5.044-2.374c1.698-1.095 3.026-1.956 5.795-1.23 3.42.96 2.632 5.842 2.066 9.421a11.605 11.605 0 0 0-.295 3.223c.185.258.345.54.504.811.125.267.291.511.493.726.48-.456.895-.978 1.23-1.55 2.005-2.915 5.733-8.339 9.989-6.912a1.97 1.97 0 0 1 1.477 1.87c.086 2.816-5.204 7.711-8.329 8.953L167.485 46c-.431 1.722-2.276 8.93-3.543 11.217l-.246.467c-.788 1.55-2.461 4.797-5.623 6.47a.712.712 0 0 1-1.01-.841.723.723 0 0 1 .346-.426c2.78-1.464 4.294-4.428 5.019-5.855l.271-.504c1.304-2.386 3.469-11.07 3.494-11.217a.696.696 0 0 1 .418-.492l3.568-1.427c2.743-1.094 7.492-5.67 7.381-7.6 0-.185 0-.407-.504-.566-2.842-.947-5.696 2.46-8.353 6.383-1.095 1.587-1.858 2.177-2.596 2.152-.738-.024-1.23-.774-1.612-1.439-.135-.233-.27-.48-.43-.713-.492-.689-.32-1.931 0-4.256.492-3.038 1.156-7.195-1.034-7.81-2.19-.615-3.026 0-4.638 1.009a17.88 17.88 0 0 1-5.265 2.657c-4.663 1.303-6.693-.492-7.382-1.329a3.329 3.329 0 0 1-.356-3.69c.43-.775 1.021-1.82.873-2.09 0 0-.221-.333-1.735-.443-1.513-.111-3.961.811-6.151 1.721a26.941 26.941 0 0 1-5.634 1.82c-.189.07-.39.104-.591.1-.529 2.46-2.35 10.749-3.211 13.43-.861 2.682-1.845 11.98 3.064 15.473 4.355 3.087 12.794 4.92 16.842 5.818l1.636.356a.714.714 0 0 1 .529.861.703.703 0 0 1-.689.53Z" />
  <path fill="#263238"
    d="M129.384 38.977a.64.64 0 0 1-.332-.086 13.987 13.987 0 0 1-6.557-8.757 4.997 4.997 0 0 1 0-3.284 1.796 1.796 0 0 1 1.734-.763c1.231.11 2.83 1.23 3.962 3.875a23.578 23.578 0 0 0 2.46 4.71.714.714 0 1 1-1.132.873 24.012 24.012 0 0 1-2.694-5.018c-.959-2.275-2.202-2.976-2.792-3.025-.283 0-.382.098-.406.135-.406.898 1.033 7.38 6.052 10a.709.709 0 0 1 .353.798.713.713 0 0 1-.685.542h.037Zm29.046-1.968h-.369a1.516 1.516 0 0 1-1.23-1.23c-.197-.836-1.969-2.03-3.174-2.608a.719.719 0 0 1-.367-.41.71.71 0 0 1 .035-.549.697.697 0 0 1 .947-.332c.59.283 3.531 1.796 3.949 3.58 0 .11 0 .11.098.122a.944.944 0 0 0 .8-.393.7.7 0 0 0 0-.788c-.935-1.734-1.575-2.706-2.362-2.915a.721.721 0 0 1-.473-.317.713.713 0 0 1 .83-1.06c1.427.369 2.288 1.796 3.26 3.628a2.074 2.074 0 0 1-.16 2.313 2.363 2.363 0 0 1-1.784.959Zm-25.564-4.956a.778.778 0 0 1-.234 0 2.175 2.175 0 0 1-1.599-1.44 2.456 2.456 0 0 1 .591-2.017.725.725 0 0 1 1.008 0 .714.714 0 0 1 0 .997c-.123.147-.332.504-.27.7.061.198.184.247.418.358 1.31-.599 2.72-.949 4.158-1.034a1.023 1.023 0 0 0 .935-.713 2.02 2.02 0 0 0 .099-1.34.717.717 0 0 1-.775-.456.7.7 0 0 1 .381-.898 1.231 1.231 0 0 1 1.341.259 2.868 2.868 0 0 1 .307 2.89A2.453 2.453 0 0 1 137 31.044a10.19 10.19 0 0 0-3.851 1.009.64.64 0 0 1-.283 0Z" />
  <path fill="#263238"
    d="M134.649 36.295a15.528 15.528 0 0 0-2.214-.725 9.363 9.363 0 0 0-.997-.21c-.381-.073-.787-.11-1.316-.258a2.463 2.463 0 0 1 2.694-1.057 2.31 2.31 0 0 1 1.833 2.25Zm12.98 1.969a3.334 3.334 0 0 1 1.796-1.23 4.54 4.54 0 0 1 2.227-.074 4.6 4.6 0 0 1 1.968.996 3.938 3.938 0 0 1 1.23 1.783c-.701-.245-1.23-.528-1.845-.737a9.968 9.968 0 0 0-1.673-.505 8.669 8.669 0 0 0-1.722-.246c-.665 0-1.292 0-1.981.013Zm-8.821 8.474h-.135a20.69 20.69 0 0 1-3.691-1.107 1.6 1.6 0 0 1-.911-1.045 3.453 3.453 0 0 1 .616-2.46l3.518-6.925.123-.172a2.292 2.292 0 0 1 1.907-.8 2.77 2.77 0 0 1 1.833 1.317.774.774 0 0 1 .086.467s-.799 5.24-.886 7.38a3.365 3.365 0 0 1-2.251 3.345h-.209Zm.578-10.824-3.506 6.9a2.28 2.28 0 0 0-.468 1.378s0 .086.136.135c1.032.423 2.104.744 3.198.96a2.073 2.073 0 0 0 1.058-1.968c.087-1.968.689-6.15.862-7.27a1.234 1.234 0 0 0-.64-.442.888.888 0 0 0-.64.32v-.013Zm-9.264 2.313a2.093 2.093 0 0 1 1.686.172 4.196 4.196 0 0 1 2.091 4.502c-.394 1.008-1.673-.136-3.518-.861-.603-.234-.665 0-1.231-.197l.972-3.616Zm14.579 6.875c-.209 1.23 2.067.935 4.736 1.366 2.67.43 4.7 1.475 4.921.196.222-1.279-1.501-4.428-4.158-4.858-2.657-.43-5.29 2.017-5.499 3.296Zm-6.656 7.011c1.612-.492 2.977-.738 4.281-1.144a15.535 15.535 0 0 0 1.919-.688c.652-.259 1.231-.628 2.043-1.009a4.024 4.024 0 0 1-1.231 2.202 5.546 5.546 0 0 1-2.214 1.23 6.315 6.315 0 0 1-2.461.209 4.92 4.92 0 0 1-2.337-.8Z" />
  <path fill="#E8E8E8"
    d="M169.318 111.617c0 6.814-2.854 12.3-13.078 12.3-7.209 0-11.552-5.51-11.552-12.3 0-6.789 2.904-12.3 11.552-12.3 8.649 0 13.078 5.499 13.078 12.3Z" />
  <path fill="#263238"
    d="M155.01 113.156h-.233c-.394 0-1.144 0-1.366-.677-.221-.676.283-.996.628-1.23.174-.14.335-.296.479-.467l-.11-.074c-.923-.64-7.099-.443-12.537.123a.706.706 0 0 1-.526-.147.71.71 0 0 1-.261-.48.725.725 0 0 1 .64-.787c1.931-.197 11.675-1.144 13.532.122a1.491 1.491 0 0 1 .726 1.23 1.46 1.46 0 0 1-.406 1.058c.591 0 1.403-.135 2.338-.246 4.121-.492 11.072-1.316 17.1.295a.714.714 0 0 1-.369 1.378c-5.819-1.537-12.536-.738-16.559-.258-1.402.024-2.424.16-3.076.16ZM55.557 29.912a.701.701 0 0 1-.652-.43 17.09 17.09 0 0 1-.713-5.375l-1.686-5.928a.726.726 0 0 1 .812-.898l5.955 1.045c.295 0 1.722.468 1.98 3.69a8.03 8.03 0 0 0 1.353 3.813.689.689 0 0 1-.246.971.703.703 0 0 1-.971-.245 9.299 9.299 0 0 1-1.55-4.416c-.173-2.128-.862-2.46-.874-2.46l-4.773-.836 1.402 4.92c.006.07.006.139 0 .209-.055 1.66.144 3.32.59 4.92a.713.713 0 0 1-.368.934.76.76 0 0 1-.259.086Zm26.131 13.296a.64.64 0 0 1-.37-.098c-1.623-.96-15.919-9.544-17.838-13.087a.725.725 0 0 1 0-.725c.399-.72.638-1.517.701-2.337a.716.716 0 1 1 1.427.123 7.795 7.795 0 0 1-.7 2.57c2.09 2.915 12.954 9.754 17.112 12.3a.691.691 0 0 1 .246.971.713.713 0 0 1-.578.283Zm72.363 243.837s-.677-10.405-1.231-10.909c-.553-.505-7.627.455-9.079-.271-1.452-.726-2.251 3.247-3.186 3.69-.935.443-2.904-1.452-1.563-3.924s-4.17-6.912-5.548-6.801c-1.378.11-10.162 3.69-16.953 4.108-6.791.418-12.191-.861-14.061.123-1.87.984-3.605 2.091-.997 5.092 2.608 3.001 8.612 8.941 16.584 9.015 7.972.074 9.842-1.23 10.826-2.386.984-1.156 2.46-3.259 3.531-1.107 1.07 2.153 1.095 5.068 2.952 5.621 1.858.553 14.579 3.505 18.725-2.251Z" />
  <path fill="#263238"
    d="M142.167 297.647a23.971 23.971 0 0 1-5.536-.602 16.884 16.884 0 0 1-6.877-3.813 35.69 35.69 0 0 0-1.403-1.107c-.886-.652-3.026-.418-5.487-.148-3.26.484-6.572.517-9.842.099a29.65 29.65 0 0 1-15.993-8.918c-2.276-2.816-1.34-5.288-.197-7.588a3.31 3.31 0 0 1 3.593-2.116.714.714 0 0 1-.332 1.378c-.124 0-1.23-.197-1.993 1.377-1.046 2.103-1.71 3.887 0 6.052a28.47 28.47 0 0 0 15.144 8.412c3.14.388 6.318.35 9.448-.11 2.867-.32 5.142-.566 6.471.418.492.357.972.75 1.464 1.144a15.46 15.46 0 0 0 6.324 3.542c3.862.959 10.174.763 14.037-1.23 3.58-1.845 4.158-3.567 2.46-7.072a.71.71 0 0 1 .373-.789.712.712 0 0 1 .857.162c2.092 4.181 1.231 6.777-3.026 8.954a21.538 21.538 0 0 1-9.485 1.955Zm-6.164-23.91a.687.687 0 0 1-.627-.394.68.68 0 0 1-.048-.529.695.695 0 0 1 .343-.406c.098-.073 3.309-2.263 6.815-16.678a.723.723 0 0 1 .302-.5.706.706 0 0 1 .574-.108c.098.024.19.068.27.129a.726.726 0 0 1 .275.516.706.706 0 0 1-.043.295c-3.69 15.301-7.16 17.416-7.541 17.601a.725.725 0 0 1-.32.074Zm14.456 4.969a.703.703 0 0 1-.702-.664c-.344-5.363 6.742-20.22 7.05-20.848a.71.71 0 0 1 .849-.16.717.717 0 0 1 .381.775c-.074.148-7.222 15.153-6.914 20.135a.708.708 0 0 1-.395.689.705.705 0 0 1-.269.073Z" />
  <path fill="#263238"
    d="M156.019 258.288c-4.675 0-13.078-2.459-17.1-4.833-4.208-2.46-2.928-11.537-1.809-19.556.135-.984.271-1.956.394-2.878.492-3.813.369-11.144.234-18.241-.148-8.376-.283-16.296.492-19.58 1.427-6.15 13.791-28.781 14.32-29.74a.68.68 0 0 1 .696-.371.683.683 0 0 1 .263.088.695.695 0 0 1 .367.696.7.7 0 0 1-.084.263c-.123.234-12.794 23.492-14.184 29.383-.726 3.112-.579 11.316-.443 19.237.123 7.146.258 14.538-.246 18.449-.123.935-.259 1.906-.406 2.89-.997 7.196-2.252 16.162 1.119 18.13 4.195 2.46 14.049 5.202 17.679 4.538 1.784-.319 7.836-2.066 11.219-10.946 2.756-7.22 3.519-31.106 3.519-33.59a15.983 15.983 0 0 0-2.03-4.071c-1.71-2.878-2.46-4.293-1.772-5.092.689-.8 1.588-.197 1.957 0a20.7 20.7 0 0 1 4.293 2.878l.837.652v-.209a41.845 41.845 0 0 0-.935-2.915c-.591-1.735-.923-2.694-.369-3.333a1.408 1.408 0 0 1 1.414-.333c1.87.369 2.891.234 3.691-.516.96-1.033 17.851-28.289 19.044-34.193 1.353-6.543 1.23-13.824-.258-16.21a90.567 90.567 0 0 0-3.888-5.646.717.717 0 0 1 .397-1.121.706.706 0 0 1 .747.26s2.178 2.903 3.95 5.744c1.956 3.136 1.697 11.23.455 17.219-1.243 5.99-18.491 33.91-19.549 34.968-1.378 1.377-3.162 1.23-4.921.91.146.61.331 1.21.554 1.796.283.824.64 1.845.959 3.013.246.922.431 1.857-.221 2.275-.652.419-1.464-.135-2.83-1.23a19.562 19.562 0 0 0-3.998-2.693h-.074a27.654 27.654 0 0 0 1.71 3.136c1.378 2.337 2.227 3.825 2.227 4.797 0 .246-.554 26.075-3.604 34.094-3.691 9.581-10.335 11.488-12.303 11.845a8.314 8.314 0 0 1-1.513.036Z" />
  <path fill="#263238"
    d="M220.73 235.842c-.627 0-1.23 0-1.71-.073-2.953-.222-13.213-3.592-22.267-6.556-5.438-1.783-10.568-3.468-13.127-4.145a23.72 23.72 0 0 1-11.417-7.38.72.72 0 0 1-.131-.832.7.7 0 0 1 .189-.23.704.704 0 0 1 .564-.147.715.715 0 0 1 .486.324 22.768 22.768 0 0 0 10.666 6.875c2.608.689 7.763 2.374 13.213 4.17 8.537 2.792 19.154 6.285 21.935 6.494 4.158.32 11.207-.566 13.532-4.305 2.326-3.739 2.695-12.853 2.055-15.091l-.086-.308c-.763-2.694-2.547-9.028-8.366-10.959-7.283-2.46-19.991-5.916-21.345-5.682-.282 0-.59.762-.775 1.168-.283.64-.578 1.292-1.23 1.304-.652.012-1.082-.75-1.23-1.07a27.222 27.222 0 0 1-.775-1.746c-.394-.948-1.23-2.915-1.686-3.026a12.11 12.11 0 0 0-1.587 1.783c-1.131 1.452-1.894 2.46-2.755 2.103-.861-.356-.763-1.229-.763-1.574a13.51 13.51 0 0 1 .32-2.558c.393-1.993.406-2.681-.923-3.186-3.149-1.23-3.851-6.408-3.851-8.314 0-.189.076-.371.209-.505a.719.719 0 0 1 1.01 0 .719.719 0 0 1 .209.505c0 1.23.504 6.076 2.928 6.986 2.423.91 2.165 2.989 1.82 4.784a14.38 14.38 0 0 0-.233 2.141c.307-.345.676-.825.959-1.23.523-.74 1.13-1.417 1.809-2.018a1.456 1.456 0 0 1 1.23-.27c1.132.307 1.821 1.956 2.62 3.85.222.529.443 1.057.652 1.512.332-.737.788-1.734 1.747-1.98 1.821-.443 17.334 4.121 22.145 5.72 6.52 2.177 8.525 9.261 9.276 11.93l.086.295c.738 2.558.467 12.029-2.215 16.248-2.546 3.973-9.005 4.993-13.188 4.993Zm95.085 46.541c-.25.018-.501.018-.751 0a.712.712 0 0 1-.321-1.281.712.712 0 0 1 .53-.133c.099 0 8.612 1.033 16.104-13.308 6.459-12.3 6.767-15.989 6.668-16.924-.233.172-.541.455-.824.713a8.674 8.674 0 0 1-2.534 1.796c-1.415.566-16.682 13.529-19.807 27.182a.698.698 0 0 1-.573.539.712.712 0 0 1-.276-.01.698.698 0 0 1-.45-.31.702.702 0 0 1-.091-.539c3.272-14.292 18.995-27.514 20.668-28.19a7.076 7.076 0 0 0 2.091-1.513 4.026 4.026 0 0 1 1.809-1.23 1.046 1.046 0 0 1 1.082.43c1.698 2.263-3.346 12.681-6.508 18.683-6.828 12.988-14.431 14.095-16.817 14.095Z" />
  <path fill="#263238"
    d="M316.897 280.71a.708.708 0 0 1-.541-.258.725.725 0 0 1-.136-.244.727.727 0 0 1 .047-.546.7.7 0 0 1 .175-.218c.099-.074 9.731-8.253 13.902-17.109a.715.715 0 0 1 1.296.072.717.717 0 0 1-.004.531c-4.306 9.151-13.865 17.219-14.271 17.6a.723.723 0 0 1-.468.172Zm-1.685-17.182h-.061a.7.7 0 0 1-.652-.762c.972-11.697 6.68-23.763 16.965-35.841.431-.516.726-.861.849-1.033.248-.397.473-.808.676-1.23.837-1.574 1.514-2.804 2.461-2.534.947.271 1.23 1.23.972 6.15-.517 9.84-7.222 28.879-7.505 29.679a.704.704 0 0 1-.352.459.72.72 0 0 1-.829-.106.726.726 0 0 1-.16-.821c.074-.197 6.927-19.617 7.382-29.285a26.832 26.832 0 0 0 0-4.243c-.259.406-.566.984-.763 1.353-.197.369-.541 1.021-.763 1.341-.221.319-.467.578-.947 1.143-10.088 11.857-15.673 23.64-16.621 35.029a.711.711 0 0 1-.652.701Z" />
  <path fill="#263238"
    d="M315.569 270.588h-.197a.714.714 0 0 1-.479-.885c4.145-14.194 13.815-31.979 13.914-32.2a.684.684 0 0 1 .42-.343.695.695 0 0 1 .539.06.71.71 0 0 1 .343.42.713.713 0 0 1-.06.539c-.098.185-9.682 17.883-13.791 31.979a.7.7 0 0 1-.689.43Z" />
  <path fill="#263238"
    d="M311.25 280.945a.705.705 0 0 1-.492-.197c-.492-.468-12.007-11.746-10.666-25.829 1.169-12.3 4.158-23.873 6.52-25.386a1.24 1.24 0 0 1 .533-.22 1.24 1.24 0 0 1 .574.048c1.415.492 1.711 2.57 2.08 5.215a24.588 24.588 0 0 0 1.402 6.149c1.981 4.662 6.766 26.014 4.195 37.575a.713.713 0 0 1-1.39-.307c2.46-11.279-2.178-32.151-4.121-36.714a26.19 26.19 0 0 1-1.501-6.47c-.234-1.635-.517-3.689-1.046-4.022-1.329.837-4.527 10.627-5.831 24.304-1.23 13.357 10.125 24.513 10.235 24.599a.703.703 0 0 1-.08 1.119.696.696 0 0 1-.412.111v.025Z" />
  <path fill="#263238"
    d="M312.235 279.259a.724.724 0 0 1-.652-.418c-6.151-13.603-7.148-32.704-7.148-32.889a.712.712 0 0 1 .175-.515.71.71 0 0 1 .49-.235.696.696 0 0 1 .713.676c0 .185 1.046 19.028 7.037 32.385a.711.711 0 0 1-.615.996Zm-.837-35.201a.713.713 0 0 1-.713-.664c-1.095-18.769 6.692-34.967 10.432-42.741a41.261 41.261 0 0 0 1.833-4.132c.824-2.768 1.882-3.235 2.608-3.137 1.071.136 2.522 1.439 2.781 10.972.332 12.028-3.174 33.061-3.199 33.208a.707.707 0 0 1-.29.466.701.701 0 0 1-.255.115.708.708 0 0 1-.745-.28.728.728 0 0 1-.125-.535c0-.209 3.506-21.118 3.187-32.999-.234-8.868-1.551-9.594-1.563-9.606a4.916 4.916 0 0 0-1.033 2.14 39.514 39.514 0 0 1-1.919 4.342c-3.691 7.675-11.356 23.639-10.285 42.039a.717.717 0 0 1-.677.751l-.037.061Z" />
  <path fill="#263238"
    d="M314.941 260.49a.722.722 0 0 1-.714-.639c-.233-2.128.529-5.375 1.932-11.279a569.773 569.773 0 0 0 2.546-11.254 316.946 316.946 0 0 0 4.54-31.978.74.74 0 0 1 .775-.652.696.696 0 0 1 .614.498.699.699 0 0 1 .026.277 319.138 319.138 0 0 1-4.552 32.15c-.997 4.588-1.87 8.29-2.571 11.267-1.354 5.756-2.104 8.917-1.895 10.811a.716.716 0 0 1-.627.787l-.074.012Zm10.974 25.46a.723.723 0 0 1-.689-.504.716.716 0 0 1 .48-.885l1.451-.456a1.1 1.1 0 0 1-.196-.135 1.025 1.025 0 0 1-.296-1.033 7.122 7.122 0 0 1 1.071-2.042l.16-.233c-2.67 1.008-6.373 2.103-8.92.996a.71.71 0 0 1-.437-.662.728.728 0 0 1 .056-.273.726.726 0 0 1 .947-.369c2.461 1.058 6.717-.59 8.132-1.131.505-.197 1.427-.554 1.919.073.492.628 0 1.366-.664 2.386-.234.345-.492.738-.677 1.083.406-.099.96-.271 1.403-.406a13.33 13.33 0 0 1 3.691-.787c.787 0 1.021.381 1.058.701.098.664.172 1.094-8.268 3.69l-.221-.013Zm-17.001-5.424a.637.637 0 0 1-.333-.086 21.528 21.528 0 0 1-5.24-4.022c-1.169-1.23-2.03-1.562-2.461-1.451a.452.452 0 0 0-.283.393 1.01 1.01 0 0 1-.204.507 1.01 1.01 0 0 1-.436.33c-.676.258-1.341-.283-2.116-.91l-.196-.148v.246c.123 1.439.319 3.604-1.231 4.317a.707.707 0 0 1-.547.018.707.707 0 0 1-.463-.646.721.721 0 0 1 .193-.513.707.707 0 0 1 .227-.163c.627-.282.48-1.918.393-2.89-.086-.972-.147-1.759.443-2.091.591-.332 1.292.16 2.055.763l.59.467a1.816 1.816 0 0 1 1.157-1.045c.627-.185 1.956-.185 3.85 1.845a20.533 20.533 0 0 0 4.848 3.689.723.723 0 0 1 .358.422.715.715 0 0 1-.051.55.742.742 0 0 1-.223.28.731.731 0 0 1-.33.138Zm-246.762-.873a28.267 28.267 0 0 1-3.802-.259c-5.585-.75-13.73-3.689-20.766-13.086-11.675-15.657-12.13-28.4-12.303-33.848 0-.824 0-1.464-.11-1.931-.308-2.46 0-5.363 1.44-5.966.368-.172 1.119-.295 1.918.677.518.722.825 1.573.886 2.46.259 1.574.554 3.37 4.035 5.399 7.283 4.219 31.544 19.79 38.26 42.913a.71.71 0 0 1-.206.807.73.73 0 0 1-.26.138.727.727 0 0 1-.571-.078.721.721 0 0 1-.328-.473c-6.57-22.607-30.448-37.92-37.608-42.077-4.072-2.361-4.454-4.698-4.724-6.396a3.58 3.58 0 0 0-.579-1.746.894.894 0 0 0-.32-.283c-.233.148-.873 1.747-.528 4.489 0 .492.086 1.23.123 2.054.184 5.314.627 17.748 12.031 33.049 6.718 9.028 14.443 11.783 19.746 12.521a24.68 24.68 0 0 0 10.039-.591.712.712 0 0 1 .898.456.695.695 0 0 1-.038.545.704.704 0 0 1-.418.352 23.153 23.153 0 0 1-6.815.874Z" />
  <path fill="#263238"
    d="M68.893 277.144h-.123c-.455-.086-11.33-2.03-23.055-12.484a54.178 54.178 0 0 1-15.28-24.82.719.719 0 0 1 .276-.745.707.707 0 0 1 .793-.03.711.711 0 0 1 .322.442 52.553 52.553 0 0 0 14.837 24.107c11.392 10.172 22.242 12.128 22.353 12.14a.728.728 0 0 1 .578.824.697.697 0 0 1-.701.566Zm6.964-.246a.705.705 0 0 1-.601-1.153.703.703 0 0 1 .478-.249c.135 0 13.532-2.817 14.037-27.649.615-27.391-4.921-40.515-8.353-43.946-.714-.726-1.342-1.07-1.649-.947-1.316.516-1.427 6.555-1.489 10.159-.098 4.821-2.46 9.458-5.634 15.891a445.567 445.567 0 0 0-3.617 7.379c-4.81 10.344-2.227 28.191-2.202 28.363a.715.715 0 0 1-.584.89.712.712 0 0 1-.746-.392.71.71 0 0 1-.073-.289c-.11-.738-2.682-18.449 2.313-29.174 1.23-2.768 2.547-5.252 3.691-7.454 3.125-6.26 5.388-10.774 5.475-15.276.11-6.395.344-10.651 2.386-11.463 1.39-.553 2.744.824 3.186 1.23 4.762 4.809 9.313 20.59 8.772 44.979-.59 26.075-14.615 28.904-15.206 29.015l-.184.086Zm-16.621 6.347c-4.195-.148-4.343-.886-4.416-1.23-.074-.345.221-.935.947-1.23a6.245 6.245 0 0 1 3.248-.504 6.168 6.168 0 0 0 2.46-.234c1.883-.578 2.178-1.291 2.178-1.291a.696.696 0 0 1 .575-.529.703.703 0 0 1 .274.012.739.739 0 0 1 .529.873c0 .234-.456 1.476-3.138 2.3a7.769 7.769 0 0 1-2.989.295 6.29 6.29 0 0 0-1.587 0c.578.074 1.23.123 1.931.148a.713.713 0 1 1 0 1.427l-.012-.037Z" />
  <path fill="#263238"
    d="M80.802 279.198a.715.715 0 0 1-.516-.221.715.715 0 0 1 0-1.009 9.99 9.99 0 0 0 1.23-1.353l-.074.074c-.504.603-1.23 1.5-2.251.996a3.52 3.52 0 0 1-1.612-2.189.714.714 0 1 1 1.39-.332c.134.505.449.943.886 1.23.148-.233.317-.451.504-.652.517-.603 1.39-1.624 2.461-.91a1.222 1.222 0 0 1 .529.922c.074 1.144-1.403 2.644-2.042 3.235a.765.765 0 0 1-.505.209Zm-5.032-5.412a.748.748 0 0 1-.282 0 .704.704 0 0 1-.357-.947 114.606 114.606 0 0 0 7.554-54.499.725.725 0 0 1 .905-.779.704.704 0 0 1 .428.34.703.703 0 0 1 .082.267c3.543 29.986-7.566 55.003-7.677 55.261a.712.712 0 0 1-.652.357Zm-10.087-11.733a.722.722 0 0 1-.64-.382c-.086-.184-9.4-18.683-6.397-46.393a137.917 137.917 0 0 1 8.291-35.201c1.428-3.949 2.362-6.556 2.104-8.18-.135-.836-1.23-8.216.8-9.126.406-.184 1.07-.209 1.833.726 2.14 2.632 8.611 22.557 8.23 39.002a.719.719 0 0 1-.44.659.73.73 0 0 1-.546 0 .72.72 0 0 1-.44-.659c.38-16.58-6.263-36.05-7.911-38.129l-.197-.209c-.37.787-.505 3.788.086 7.49.307 1.981-.677 4.723-2.178 8.881a137.255 137.255 0 0 0-8.218 34.869c-2.952 27.268 6.152 45.409 6.25 45.594a.702.702 0 0 1-.308.959.711.711 0 0 1-.32.099Z" />
  <path fill="#263238"
    d="M65.916 246.063a.716.716 0 0 1-.713-.689c0-.258-.16-6.248 2.165-19.212 2.325-12.963 4.92-43.651 4.92-43.97a.738.738 0 0 1 .776-.652.696.696 0 0 1 .614.498.698.698 0 0 1 .026.277c0 .307-2.645 31.191-4.921 44.105-2.276 12.915-2.153 18.843-2.141 18.905a.737.737 0 0 1-.701.738h-.025Zm-17.592-.947a.74.74 0 0 1-.541-.246c-.099-.123-10.31-11.968-12.807-27.871-2.498-15.903-3.556-21.204-5.167-23.492-.935-1.34-.972-2.779-.087-3.603.48-.456 2.461-1.661 6.828 1.931 5.795 4.735 19.45 22.139 22.895 33.491a.713.713 0 0 1-1.365.406c-3.31-10.91-16.892-28.289-22.44-32.79-2.768-2.264-4.478-2.46-4.921-1.993-.27.258-.27.935.295 1.734 1.796 2.546 2.817 7.7 5.401 24.095 2.46 15.497 12.389 27.059 12.487 27.157a.707.707 0 0 1 .173.52.718.718 0 0 1-.247.489.73.73 0 0 1-.504.172Z" />
  <path fill="#263238"
    d="M63.972 258.129a.718.718 0 0 1-.553-.258c0-.074-6.004-7.257-13.902-18.733-7.898-11.475-12.192-32.31-12.376-33.208a.714.714 0 0 1 .566-.836.725.725 0 0 1 .837.553c0 .221 4.367 21.352 12.154 32.68 7.788 11.328 13.767 18.547 13.828 18.621a.725.725 0 0 1-.553 1.181Zm-20.766-57.463a.725.725 0 0 1-.676-.517c0-.147-4.528-15.227-5.93-25.042-.332-2.373-.652-4.317-.91-5.916-.69-4.169-.948-5.743-.123-6.531a1.752 1.752 0 0 1 1.611-.332c2.313.455 21.788 15.313 26.487 32.471a.71.71 0 0 1-.499.894.712.712 0 0 1-.879-.525c-4.465-16.26-23.251-31.032-25.38-31.45a1.063 1.063 0 0 0-.38 0c-.247.357.134 2.632.565 5.277.258 1.586.578 3.554.923 5.94 1.378 9.717 5.831 24.685 5.88 24.833a.714.714 0 0 1-.48.885.59.59 0 0 1-.209.013Z" />
  <path fill="#263238"
    d="M58.892 221.931a.698.698 0 0 1-.702-.578 44.487 44.487 0 0 0-6.901-15.276c-5.709-8.314-9.178-26.862-9.313-27.649a.713.713 0 0 1 .566-.836.737.737 0 0 1 .836.578c0 .184 3.544 19.04 9.08 27.059a45.068 45.068 0 0 1 7.135 15.829.703.703 0 0 1-.578.824l-.123.049Zm8.402-40.046a.726.726 0 0 1-.497-.227.713.713 0 0 1-.192-.511c.259-6.802-.578-11.291-2.99-15.99l-.282-.529c-4.749-9.335-10.322-20.552-11.134-24.439-.529-2.46-1.353-3.456-1.747-3.468-.086 0-1.107.086-2.35 4.206-2.116 6.962 2.855 32.901 2.916 33.209a.713.713 0 1 1-1.402.27c-.21-1.082-5.094-26.554-2.88-33.848 1.059-3.517 2.277-5.227 3.692-5.227h.012c1.845.074 2.719 2.915 3.076 4.6.885 4.194 8.242 18.646 11.072 24.082l.27.542c2.535 4.919 3.42 9.655 3.15 16.715a.717.717 0 0 1-.714.615Z" />
  <path fill="#263238"
    d="M62.2 193.274a.727.727 0 0 1-.713-.652c0-.086-.689-9.114-1.365-14.87-.677-5.756-7.382-16.358-7.48-16.457a.722.722 0 0 1 .78-1.085.72.72 0 0 1 .45.323c.283.443 6.988 11.069 7.69 17.047.7 5.977 1.365 14.845 1.377 14.931a.715.715 0 0 1-.652.763H62.2Z" />
  <circle cx="194.993" cy="198.636" r=".615" fill="#263238" />
  <circle cx="202.99" cy="200.481" r="1.23" fill="#263238" />
  <circle cx="194.379" cy="198.021" r="1.23" fill="#263238" />
  <ellipse cx=".925" cy="4.627" fill="#263238" rx=".925" ry="4.627"
    transform="rotate(26.488 -312.263 397.696) skewX(-.011)" />
</svg>