<svg 
  width="233" 
  height="210"
  viewBox="0 0 233 210" 
  fill="none" 
  xmlns="http://www.w3.org/2000/svg" 
>
  <path fill="#263238"
    d="M104.491 101.07c-4.805.321-9.475-1.738-11.21-2.808h-.801l-.8 4.412v4.813l2.001 5.214s1.602 2.005 2.002 2.005c.4 0-5.605 12.433-5.605 12.433v22.46l-1.201 10.829 1.602 4.412c-1.468-.401-2.162-.482 6.805 2.406 8.968 2.888 13.078-6.016 14.012-10.829.401-5.347 1.201-15.722 1.201-14.438 0 1.283 5.605 3.743 8.408 4.813 6.672 2.139 20.657 6.417 23.22 6.417 2.562 0 5.604-1.07 6.805-1.605 4.004-3.609 1.602-13.636 1.201-14.839-.32-.963-2.268-2.54-3.202-3.209-1.293-.742-2.256-1.178-4.805-2.005l-10.809-2.808-.8 2.006c-.041-.368-.291-.634-1.201-1.203l-1.602-2.808-1.601 2.005-1.602.803v-1.204l.801-2.406-.801-1.203c-.266-.134-.88-.481-1.201-.802-.32-.321-.667-.936-.8-1.204l-.401-3.609c.973-1.853 2.995-6.482 4.404-9.626 1.419-3.166 1.602-9.492 1.201-12.433l-3.203-4.412c-13.211 9.225-16.013 8.022-22.018 8.423Z" />
  <path fill="#263238"
    d="M95.05 115.444a.47.47 0 0 1-.377-.192c-1.257-1.765-3.555-6.915-3.795-9.289-.24-2.375 1.113-8.022 1.17-8.278a.465.465 0 0 1 .904.208c0 .064-1.37 5.76-1.153 8.022.216 2.262 2.458 7.219 3.627 8.823a.474.474 0 0 1 .082.347.467.467 0 0 1-.186.303.478.478 0 0 1-.272.056Z" />
  <path fill="#fff"
    d="m101.639 167.88-3.05-.217c3.307-.89 5.356-6.225 6.638-9.89.24-.69.472-1.348.704-1.95 1.137-2.976 1.241-12.24 1.177-15.802-.472-1.676-1.745-5.759-2.642-7.083a2.4 2.4 0 0 1-.384-1.861c.28-1.347 1.657-2.222 2.866-2.984.409-.242.802-.51 1.177-.802.272-1.716 2.266-2.254 3.747-2.647.465-.128.905-.248 1.249-.377 1.434-1.315 7.711-13.331 9.088-19.789 1.169-5.446-.801-7.371-.801-7.387l1.81-2.118c.336.28 3.259 2.968 1.737 10.091-1.185 5.535-8.046 20.695-10.657 21.746-.55.206-1.111.38-1.681.521a8.61 8.61 0 0 0-1.738.586c-.176 1.123-1.265 1.813-2.402 2.543a9.934 9.934 0 0 0-1.585 1.091c1.313 2.133 2.778 7.283 2.947 7.885l.048.345c0 1.315.208 12.946-1.362 17.037-.216.578-.44 1.203-.672 1.861-1.433 4.155-1.481 7.933-6.214 9.201Zm51.604-27.819c-2.185-1.075-7.878-2.198-11.289-2.919a145.406 145.406 0 0 1-3.659-.803 6.761 6.761 0 0 0-4.652.562 9.57 9.57 0 0 1-1.313.465c-1.73.433-2.907-1.267-3.756-2.511-.096-.136-.2-.296-.312-.441-1.081.634-2.57 1.5-4.003 1.091a2.526 2.526 0 0 1-1.538-1.307 10.796 10.796 0 0 1-.8-2.471c-.265-1.115-.449-1.821-1.001-2.262-1.89-1.508-1.882-2.222-1.922-2.406l1.417-2.319a14.272 14.272 0 0 0 2.242 2.583 6.167 6.167 0 0 1 1.97 3.803c.121.59.298 1.167.528 1.724a7.775 7.775 0 0 0 1.682-.802 5.255 5.255 0 0 1 1.265-.61c1.257-.312 2.026.802 2.762 1.869.302.469.645.909 1.025 1.316.2-.064.441-.161.705-.273a9.426 9.426 0 0 1 6.405-.674c.889.225 2.122.482 3.547.802a45.355 45.355 0 0 1 9.865 3.081l.832 2.502Z" />
  <path fill="#263238"
    d="M169.018 155.158a.5.5 0 0 1-.256-.072c-5.173-3.377-16.815-4.332-16.943-4.34a.458.458 0 0 1-.349-.145.466.466 0 0 1 .228-.773.465.465 0 0 1 .193-.004c.489 0 12.01.978 17.375 4.483a.463.463 0 0 1 .205.474.469.469 0 0 1-.453.377Zm-4.165-9.129a3.804 3.804 0 0 1-1.064-.176c-1.658-.473-10.409-5.182-10.762-5.382a.466.466 0 0 1-.192-.626.471.471 0 0 1 .633-.193c3.114 1.685 9.328 4.95 10.569 5.31.332.136.696.172 1.049.105a.463.463 0 0 1 .912.104.803.803 0 0 1-.336.626 1.31 1.31 0 0 1-.809.232Z" />
  <path fill="#263238"
    d="M169.747 139.829s-4.404 4.299-4.404 4.765c0 .465 3.13 3.248 3.363 4.179.232.93 2.322-.233 2.898 0 .577.232.465 1.861-1.161 2.206-1.625.344-1.505 4.532-.929 5.109.577.578 5.605 3.137 8.352 6.04 2.746 2.904 4.291 5.808 5.444 6.273 1.153.465 2.322.802 2.666-1.508.345-2.31.697-7.316-2.314-10.917-3.01-3.602-4.291-3.955-5.22-3.955-.929 0-2.402.121-1.85-1.155.553-1.275 1.85-2.406 1.386-3.489-.465-1.083-4.092-7.893-8.231-7.548Z" />
  <path fill="#263238"
    d="M185.824 170.102a1.853 1.853 0 0 1-1.69-.915.455.455 0 0 1-.025-.352.458.458 0 0 1 .234-.266.466.466 0 0 1 .616.201c.04.064.352.586 1.329.345 1.337-.337 2.402-.722 2.675-2.31a16.875 16.875 0 0 0-2.026-10.011 20.707 20.707 0 0 0-3.667-4.187c-1.257-1.179-2.242-2.11-2.314-3.104 0-.361 0-.722-.04-1.099a9.123 9.123 0 0 0-.801-4.187c-1.049-2.094-3.539-4.813-5.901-5.816-2.17-.89-3.155-.497-4.004 1.604a.463.463 0 0 1-.858-.004.465.465 0 0 1 .002-.357c1.081-2.583 2.602-3.208 5.244-2.109 2.642 1.099 5.269 4.01 6.406 6.264a9.907 9.907 0 0 1 .929 4.573c0 .363.016.716.048 1.058.04.626.96 1.492 2.017 2.487a21.395 21.395 0 0 1 3.828 4.388 17.674 17.674 0 0 1 2.145 10.66c-.4 2.126-1.881 2.671-3.362 3.04-.256.07-.52.102-.785.097Zm-82.535-72.77c-2.282 0-6.405-.297-8.56-2.303a13.452 13.452 0 0 1-2.241-2.695 9.122 9.122 0 0 0-1.498-1.869 3.443 3.443 0 0 1-1.016-3.69.465.465 0 0 1 .755-.16.457.457 0 0 1 .11.505 2.515 2.515 0 0 0 .8 2.663 10.177 10.177 0 0 1 1.602 2.038c.584.931 1.29 1.781 2.097 2.526 2.226 2.07 7.206 2.094 8.632 2.046a.463.463 0 0 1 .464.465.466.466 0 0 1-.464.465l-.681.009Z" />
  <path fill="#263238"
    d="M106.699 101.471a34.646 34.646 0 0 1-11.353-1.781c-4.909-1.925-4.804-4.01-4.604-4.58.06-.21.133-.416.216-.618.192-.481.264-.658 0-1.091-.657-.995-.12-3.152-.056-3.393a.465.465 0 0 1 .56-.337.472.472 0 0 1 .337.57c-.217.802-.377 2.181-.064 2.647a1.799 1.799 0 0 1 .12 1.949 3.264 3.264 0 0 0-.184.521c-.217.802.712 2.158 4.003 3.465 4.003 1.605 14.22 2.936 20.265 0 9.809-4.732 10.505-6.48 10.481-6.906-.024-.425-.064-.802-.112-1.283a8.691 8.691 0 0 1 .144-3.867c.545-1.411 1.089-2.815.529-4.572a22.091 22.091 0 0 1-.569-4.901c-.056-1.09-.104-2.126-.216-2.912a9.72 9.72 0 0 0-1.305-4.01.463.463 0 0 1-.15-.492.472.472 0 0 1 .743-.223c.672.57 1.361 2.8 1.601 4.629.128.802.176 1.885.232 3 .002 1.571.179 3.137.529 4.668.656 2.07 0 3.698-.529 5.134a8.042 8.042 0 0 0-.112 3.49c.048.465.096.914.12 1.331.048 1.043-1.033 2.984-11.009 7.789-2.675 1.283-6.174 1.773-9.617 1.773Z" />
  <path fill="#263238"
    d="M148.424 102.273a30.152 30.152 0 0 1-6.173-.803c-1.866-.433-2.234-2.88-2.506-4.668a5.685 5.685 0 0 0-.441-1.805c-1.104-.738-1.281-1.388-1.281-3.088a3.93 3.93 0 0 0-1.089-2.326 10.274 10.274 0 0 1-1.024-1.605c-.649-1.299-2.899-7.652-2.354-9.48.384-1.276-1.169-4.164-3.732-5.159-2.786-1.09-8.351-4.54-8.583-4.684a.455.455 0 0 1-.209-.29.465.465 0 0 1 .057-.352.473.473 0 0 1 .64-.152c.056 0 5.725 3.553 8.432 4.612 2.922 1.14 4.804 4.468 4.283 6.289-.392 1.332 1.482 7.171 2.29 8.823.284.513.614.999.985 1.452a4.818 4.818 0 0 1 1.273 2.888c0 1.604.152 1.837.873 2.318.512.345.648 1.22.801 2.407.248 1.604.552 3.609 1.793 3.898 4.292.987 9.144 1.243 9.656-.505.433-1.468.249-3.794.081-5.848a20.138 20.138 0 0 1-.097-3.842c.201-1.42-2.402-11.294-4.003-17.19-.761-2.872-1.361-5.134-1.553-6.032-.561-2.647-16.751-14.39-20.898-16.043-3.571-1.452-8.904-3.36-14.028-3.208a.413.413 0 0 1-.361-.153 17.68 17.68 0 0 0-2.546-2.446l-.28.304c-1.105 1.196-3.691 4.011-7.398 3.53a21.173 21.173 0 0 1-5.925-1.524c.013.426-.136.842-.417 1.163l-.072.056c-.08.056-1.978 1.243-7.206.802-5.044-.457-7.815-.706-12.651-5.55-1.353-1.356-2.922-3.009-4.596-4.765-3.86-4.147-8.263-8.776-9.944-9.618-1.922-.962-5.381-1.348-6.63-1.46-.136 1.468-.849 5.752-4.468 7.22 0 .577.256 2.278 2.474 5.19l1.225 1.604c3.74 4.957 12.507 16.564 15.285 17.759.897.385 2.402.922 4.116 1.54 4.684 1.685 10.52 3.778 12.258 5.527 1.474 1.468 2.739 7.075 3.86 12.032.656 2.888 1.337 5.88 1.737 6.36a9.511 9.511 0 0 0 2.819 1.854 5.106 5.106 0 0 1 1.85 1.21.466.466 0 0 1-.137.643.472.472 0 0 1-.64-.129 6.58 6.58 0 0 0-1.49-.898 10.16 10.16 0 0 1-3.114-2.086c-.52-.617-1.041-2.855-1.93-6.746-.96-4.38-2.33-10.315-3.611-11.607-1.602-1.604-7.559-3.746-11.914-5.31-1.738-.625-3.203-1.163-4.172-1.604-3.003-1.291-11.554-12.61-15.653-18.048l-1.225-1.604c-3.06-4.011-2.683-5.992-2.627-6.201a.442.442 0 0 1 .297-.329c4.003-1.347 4.163-6.874 4.171-6.93a.468.468 0 0 1 .307-.423.461.461 0 0 1 .181-.026c.2 0 4.917.328 7.447 1.604 1.818.946 6.093 5.43 10.225 9.77 1.665 1.748 3.202 3.4 4.58 4.748 4.596 4.605 7.094 4.813 12.074 5.287 4.388.4 6.23-.434 6.542-.602.095-.22.136-.459.12-.698 0-.265 0-.874.568-.874.2.025.392.088.569.184 1.852.8 3.815 1.314 5.821 1.524 3.202.41 5.604-2.15 6.605-3.208.178-.225.389-.423.625-.586.272-.128.801-.377 3.427 2.583 5.22-.096 10.593 1.82 14.196 3.289 4.172 1.708 20.762 13.476 21.45 16.749.185.874.801 3.128 1.546 5.984 2.33 8.727 4.235 16.042 4.003 17.558a19.61 19.61 0 0 0 .104 3.642c.168 2.134.361 4.548-.12 6.176-.416 1.476-2.378 1.926-4.548 1.926Z" />
  <path fill="#263238"
    d="M100.959 52.997a12.905 12.905 0 0 1-4.203-.681c-4.628-1.605-4.58-3.169-4.524-3.466a.467.467 0 0 1 .837-.203c.072.1.103.225.084.348 0 .08.184 1.155 3.907 2.406 2.522.81 5.231.828 7.764.052a12.993 12.993 0 0 0 6.408-4.391.452.452 0 0 1 .489-.157.472.472 0 0 1 .232.742 14.088 14.088 0 0 1-10.994 5.35Z" />
  <path fill="#E8E8E8" d="M60.428 16.26 3.083 6.192l53.014 1.86 4.331 8.206Z" />
  <path fill="#D9D9D9" d="M50.988 7.869V5.262l-47.905.93L50.988 7.87Z" />
  <path fill="#E8E8E8" d="M54.095 5.206 44.198 0 3.083 6.193l51.012-.987Z" />
  <path fill="#263238"
    d="M48.682 35.535a.433.433 0 0 1-.352-.16c-.072-.08-7.11-8.27-9.208-9.923-.432-.337-.88-.706-1.345-1.083a27.746 27.746 0 0 0-6.206-4.22c-2.882-1.219-6.565-7.154-6.717-7.411a.468.468 0 0 1 .678-.617c.05.037.09.083.122.136 0 .056 3.683 5.927 6.302 7.042 2.29.971 4.484 2.768 6.405 4.348l1.33 1.075c2.177 1.708 9.047 9.706 9.343 10.05a.457.457 0 0 1-.048.65.448.448 0 0 1-.304.113Z" />
  <path fill="#9E9E9E"
    d="M34.63 11.663 4.316 6.193l31.42 9.465-1.106-3.995Zm5.725 5.383 11.266 3.393.8-5.575-13.387-2.407s.296 1.74.465 2.407c.233.746.52 1.475.856 2.181Z" />
  <path fill="#263238"
    d="M96.883 48.2h-.128a.463.463 0 0 1-.32-.577s.872-3.088 0-5.214a.467.467 0 0 1 .427-.684.464.464 0 0 1 .43.34c.984 2.406.055 5.678 0 5.815a.465.465 0 0 1-.409.32Zm10.345-1.62a.464.464 0 0 1-.376-.192c-1.265-1.749-3.379-4.813-3.299-5.671a.472.472 0 0 1 .504-.418.481.481 0 0 1 .425.506c0 .49 1.601 3 3.122 5.037a.46.46 0 0 1 .02.517.477.477 0 0 1-.396.221Zm51.812 72.257a1.652 1.652 0 0 1-.328-.04c-1.281-.281-6.293-5.423-7.206-6.674a7.422 7.422 0 0 0-2.634-2.102 5.097 5.097 0 0 0-.929 2.407c-.096 1.187-.28 2.35-.969 2.823a1.278 1.278 0 0 1-1.129.137c-1.425-.433-1.209-1.757-.905-3.586l.104-.65a13.988 13.988 0 0 1 1.602-4.066c.128-.241.264-.506.336-.666-.368-.618-1.874-3.104-2.907-4.813a.476.476 0 0 1 .153-.642.46.46 0 0 1 .64.153c.489.802 2.907 4.756 3.019 4.989.112.233 0 .553-.425 1.38a13.163 13.163 0 0 0-1.497 3.786l-.112.649c-.312 1.91-.328 2.367.256 2.543.224.072.304 0 .345 0 .416-.281.528-1.668.568-2.125a5.179 5.179 0 0 1 1.417-3.209.683.683 0 0 1 .577-.096 8.267 8.267 0 0 1 3.202 2.486c1.234 1.605 5.91 6.161 6.686 6.329.088 0 .24.04.28-.04.04-.08 0-.722-.688-1.371-.921-.803-3.956-4.813-3.691-5.736a.56.56 0 0 1 .432-.401c.432-.088.865.225 3.339 2.407 1.273 1.131 3.203 2.831 3.683 2.927.185.037.372.064.561.081a4.591 4.591 0 0 0-.337-.514c-.384-.537-1.145-1.371-1.881-2.182a21.417 21.417 0 0 1-2.442-2.951.466.466 0 0 1 .824-.442c.69.984 1.458 1.909 2.298 2.768.801.866 1.538 1.684 1.954 2.262.416.577.801 1.179.472 1.604-.328.425-.977.385-1.601.249-.625-.137-2.01-1.276-4.116-3.137-.56-.497-1.233-1.099-1.777-1.548a21.794 21.794 0 0 0 2.93 3.891c.889.802 1.249 1.796.897 2.478a1.051 1.051 0 0 1-.402.475 1.05 1.05 0 0 1-.599.167Z" />
  <path fill="#263238"
    d="M163.732 114.954a4.431 4.431 0 0 1-1.873-.529.465.465 0 0 1 .456-.802 2.946 2.946 0 0 0 1.602.393l.04-.048s0-.273-.889-1.083a47.013 47.013 0 0 1-4.004-4.813.55.55 0 0 1 0-.634c.553-.673 5.277 1.541 5.325 1.605a.258.258 0 0 0 .096 0s0-.377-.592-.875c-.737-.601-4.861-2.117-11.042-4.058l-.112-.041c-1.313-.409-1.866-2.278-1.922-2.486a.466.466 0 0 1 .889-.249c.128.433.601 1.604 1.305 1.853h.112c4.58 1.444 10.273 3.345 11.354 4.227 1.081.883 1.057 1.669.801 2.118a.952.952 0 0 1-1.265.289c-.481-.241-2.258-.947-3.443-1.356a38.164 38.164 0 0 0 3.202 3.73c.841.802 1.193 1.34 1.177 1.821a1 1 0 0 1-.416.746c-.234.161-.519.23-.801.192ZM90.27 7.877s-5.733 1.476-6.502 4.62c-.769 3.145 0 6.418 2.474 6.089 2.474-.33 5.717-2.479 7.879-2.326 2.162.152 1.705.97.929 2.342-.777 1.371.616 3.698 4.484 2.615 3.867-1.083 4.003-3.097 6.797-2.326 2.795.77.249 7.123.897 8.02.649.9.801 2.167 2.258 0 1.457-2.165 3.651-5.109 5.965-4.33 2.314.777-2.162 5.261-4.476 6.192l-2.322.93s-.928 6.498-2.322 7.428c0 0 9.28-1.235 12.811-4.492 3.531-3.257.465-3.208 1.081-4.949.617-1.74 4.172-1.829 4.172-3.939 0-2.11-.464-1.796-3.707-3.345-3.243-1.548-2.322-2.318-1.858-3.096.465-.778.929-2.165-1.697-2.944-2.627-.778-8.808-2.63-7.671-4.331 1.137-1.7 1.73-5.11-2.258-4.813-3.987.297-7.798 2.896-10.064 2.615-2.266-.28-4.356-.882-6.87.04Z" />
  <path fill="#263238"
    d="M97.836 42.89h-.112l-1.041-.232c-2.698-.594-8.311-1.821-11.306-3.947-3.659-2.599-2.994-9.064-2.338-11.125.657-2.062 2.138-9.032 2.154-9.137a.448.448 0 0 1 .208-.297.425.425 0 0 1 .353-.056c.093.009.187.009.28 0a.5.5 0 0 1 .152-.048 15.25 15.25 0 0 0 3.523-1.139c1.601-.658 3.155-1.283 4.444-1.187.712.056 1.601.184 1.89.802.288.618-.073 1.34-.585 2.246a1.278 1.278 0 0 0 .152 1.404c.64.802 2.066 1.035 3.795.545a10.836 10.836 0 0 0 3.283-1.548c1.105-.714 1.97-1.275 3.771-.802 2.226.626 1.714 3.81 1.346 6.144a7.58 7.58 0 0 0-.193 2.102c.12.169.225.353.329.53.081.173.189.333.32.473.313-.298.582-.638.801-1.011 1.305-1.901 3.731-5.438 6.501-4.508a1.285 1.285 0 0 1 .961 1.22c.056 1.836-3.387 5.029-5.421 5.839l-2.097.842c-.281 1.123-1.482 5.824-2.306 7.316l-.161.304c-.512 1.011-1.601 3.129-3.659 4.22a.462.462 0 0 1-.657-.549.475.475 0 0 1 .225-.278c1.81-.954 2.794-2.887 3.267-3.818l.176-.329c.849-1.556 2.258-7.219 2.274-7.315a.457.457 0 0 1 .272-.321l2.322-.93c1.786-.714 4.876-3.698 4.804-4.958 0-.12 0-.264-.328-.369-1.85-.617-3.707 1.605-5.437 4.163-.712 1.035-1.209 1.42-1.689 1.404-.481-.016-.801-.505-1.049-.938-.088-.153-.176-.313-.28-.466-.321-.449-.209-1.259 0-2.775.32-1.981.752-4.692-.673-5.094-1.425-.4-1.97 0-3.018.658a11.627 11.627 0 0 1-3.427 1.733c-3.035.85-4.356-.321-4.805-.867a2.176 2.176 0 0 1-.232-2.406c.28-.505.665-1.187.569-1.364 0 0-.144-.216-1.13-.288-.984-.073-2.577.53-4.003 1.123a17.51 17.51 0 0 1-3.667 1.187 1.04 1.04 0 0 1-.384.064c-.344 1.604-1.53 7.01-2.09 8.76-.56 1.748-1.201 7.812 1.994 10.09 2.834 2.014 8.327 3.209 10.961 3.794l1.065.233a.465.465 0 0 1 .344.561.457.457 0 0 1-.448.345Z" />
  <path fill="#263238"
    d="M84.21 25.42a.415.415 0 0 1-.217-.056 9.11 9.11 0 0 1-4.268-5.712 3.27 3.27 0 0 1 0-2.141 1.17 1.17 0 0 1 1.13-.498c.8.073 1.84.802 2.577 2.527a15.381 15.381 0 0 0 1.602 3.072.466.466 0 0 1-.737.57 15.635 15.635 0 0 1-1.753-3.273c-.625-1.484-1.434-1.941-1.818-1.973-.184 0-.248.064-.264.088-.264.586.672 4.813 3.94 6.521a.465.465 0 0 1-.217.875h.024Zm18.903-1.284h-.24a.982.982 0 0 1-.801-.802c-.128-.545-1.281-1.323-2.066-1.7a.468.468 0 0 1 .226-.89c.061.004.12.02.175.047.384.185 2.298 1.171 2.57 2.335 0 .072 0 .072.064.08a.617.617 0 0 0 .52-.257.453.453 0 0 0 0-.513c-.608-1.131-1.024-1.765-1.537-1.901a.46.46 0 0 1-.308-.207.471.471 0 0 1 .026-.538.463.463 0 0 1 .514-.154c.929.241 1.49 1.172 2.122 2.367a1.354 1.354 0 0 1-.104 1.508 1.535 1.535 0 0 1-1.161.625Zm-16.639-3.232a.504.504 0 0 1-.152 0 1.416 1.416 0 0 1-1.04-.939 1.607 1.607 0 0 1 .384-1.315.472.472 0 0 1 .656 0 .466.466 0 0 1 0 .65c-.08.096-.216.328-.176.457.04.128.12.16.272.232a7.58 7.58 0 0 1 2.707-.673.664.664 0 0 0 .608-.466 1.32 1.32 0 0 0 .064-.874.464.464 0 0 1-.256-.882.8.8 0 0 1 .873.168 1.87 1.87 0 0 1 .2 1.885 1.604 1.604 0 0 1-1.45 1.1 6.62 6.62 0 0 0-2.505.657.415.415 0 0 1-.185 0Z" />
  <path fill="#263238"
    d="M87.635 23.671c-.468-.194-.95-.352-1.441-.473a6.104 6.104 0 0 0-.649-.137c-.248-.048-.512-.072-.856-.168a1.602 1.602 0 0 1 1.753-.69 1.504 1.504 0 0 1 1.193 1.468Zm8.448 1.284c.29-.391.7-.674 1.169-.802a2.95 2.95 0 0 1 1.45-.049c.473.11.912.333 1.28.65.37.305.648.708.801 1.163-.456-.16-.8-.345-1.201-.481a6.464 6.464 0 0 0-1.089-.329 5.635 5.635 0 0 0-1.12-.16c-.433 0-.842 0-1.29.008Zm-5.741 5.526h-.088a13.45 13.45 0 0 1-2.402-.722 1.04 1.04 0 0 1-.593-.681 2.257 2.257 0 0 1 .4-1.605l2.29-4.516.08-.112a1.49 1.49 0 0 1 1.242-.521 1.8 1.8 0 0 1 1.193.858c.05.093.07.2.056.305 0 0-.52 3.417-.576 4.813a2.201 2.201 0 0 1-1.466 2.181h-.136Zm.376-7.058-2.282 4.5a1.485 1.485 0 0 0-.304.898s0 .056.088.088c.672.276 1.37.485 2.082.626a1.354 1.354 0 0 0 .689-1.284c.056-1.283.448-4.01.56-4.74a.8.8 0 0 0-.416-.289.575.575 0 0 0-.417.209v-.008ZM84.69 24.93a1.359 1.359 0 0 1 1.096.113 2.734 2.734 0 0 1 1.361 2.936c-.256.657-1.089-.089-2.29-.562-.392-.152-.432 0-.8-.128l.632-2.359Zm9.487 4.484c-.137.802 1.345.61 3.082.89 1.738.282 3.059.963 3.203.13.144-.835-.977-2.889-2.706-3.17-1.73-.28-3.443 1.316-3.58 2.15Zm-4.331 4.573c1.049-.321 1.937-.482 2.786-.746.426-.122.843-.273 1.25-.45.424-.168.8-.408 1.328-.657a2.624 2.624 0 0 1-.8 1.436c-.413.375-.906.65-1.442.802-.52.15-1.063.197-1.601.136a3.199 3.199 0 0 1-1.521-.521Z" />
  <path fill="#E8E8E8"
    d="M110.199 72.794c0 4.444-1.858 8.021-8.512 8.021-4.692 0-7.518-3.593-7.518-8.021 0-4.428 1.89-8.022 7.518-8.022 5.629 0 8.512 3.586 8.512 8.022Z" />
  <path fill="#263238"
    d="M100.887 73.797h-.152c-.256 0-.745 0-.889-.441-.144-.441.184-.65.409-.802.113-.092.218-.194.312-.305l-.072-.048c-.6-.417-4.62-.29-8.16.08a.457.457 0 0 1-.512-.41.474.474 0 0 1 .417-.513c1.257-.128 7.598-.746 8.807.08a.97.97 0 0 1 .473.803.961.961 0 0 1-.265.69c.385 0 .913-.089 1.522-.16 2.682-.322 7.206-.86 11.129.192a.464.464 0 0 1-.24.898c-3.787-1.003-8.159-.481-10.777-.168-.913.016-1.578.104-2.002.104ZM36.16 19.508a.456.456 0 0 1-.425-.28 11.164 11.164 0 0 1-.464-3.506l-1.097-3.866a.474.474 0 0 1 .529-.586l3.875.682c.192 0 1.12.305 1.289 2.406.077.89.38 1.747.88 2.487a.45.45 0 0 1-.16.634.456.456 0 0 1-.632-.16 6.071 6.071 0 0 1-1.009-2.88c-.112-1.388-.56-1.605-.568-1.605l-3.107-.545.913 3.208a.795.795 0 0 1 0 .137 10.657 10.657 0 0 0 .384 3.208.466.466 0 0 1-.24.61.497.497 0 0 1-.168.056Zm17.005 8.672a.416.416 0 0 1-.24-.065c-1.057-.625-10.36-6.224-11.61-8.535a.474.474 0 0 1 0-.473c.26-.47.415-.989.457-1.524a.469.469 0 0 1 .504-.425.464.464 0 0 1 .424.505 5.094 5.094 0 0 1-.456 1.677c1.361 1.9 8.431 6.36 11.138 8.021a.45.45 0 0 1 .16.634.465.465 0 0 1-.377.184Zm47.098 159.023s-.44-6.786-.8-7.115c-.361-.329-4.965.297-5.91-.176-.945-.473-1.465 2.117-2.074 2.406-.608.289-1.89-.946-1.016-2.559.872-1.612-2.715-4.508-3.612-4.435-.896.072-6.613 2.406-11.033 2.679-4.42.272-7.935-.562-9.152.08-1.217.642-2.346 1.364-.648 3.321 1.697 1.957 5.604 5.831 10.793 5.879 5.188.049 6.405-.802 7.046-1.556.64-.754 1.601-2.125 2.298-.722.696 1.404.712 3.305 1.921 3.666 1.21.361 9.489 2.286 12.187-1.468Z" />
  <path fill="#263238"
    d="M92.528 194.118a15.655 15.655 0 0 1-3.604-.393 10.993 10.993 0 0 1-4.475-2.487 23.987 23.987 0 0 0-.913-.722c-.577-.425-1.97-.273-3.571-.096a23.371 23.371 0 0 1-6.406.064 19.286 19.286 0 0 1-10.409-5.816c-1.48-1.836-.872-3.449-.128-4.949a2.149 2.149 0 0 1 2.338-1.379.46.46 0 0 1 .291.545.465.465 0 0 1-.507.353c-.08 0-.8-.128-1.297.898-.68 1.372-1.113 2.535 0 3.947a18.525 18.525 0 0 0 9.857 5.487c2.043.252 4.112.228 6.149-.073 1.865-.208 3.347-.369 4.211.273.32.233.633.489.953.746a10.05 10.05 0 0 0 4.116 2.31c2.514.626 6.621.498 9.136-.802 2.33-1.203 2.706-2.326 1.6-4.612a.466.466 0 0 1 .54-.557.468.468 0 0 1 .262.148c1.361 2.727.8 4.42-1.97 5.839a13.982 13.982 0 0 1-6.173 1.276Zm-4.012-15.594a.449.449 0 0 1-.408-.257.444.444 0 0 1-.032-.345.454.454 0 0 1 .224-.264c.064-.049 2.154-1.476 4.436-10.877a.47.47 0 0 1 .196-.327.47.47 0 0 1 .549.014.464.464 0 0 1 .151.529c-2.402 9.979-4.66 11.358-4.908 11.479a.47.47 0 0 1-.208.048Zm9.408 3.241a.455.455 0 0 1-.456-.433c-.224-3.498 4.388-13.188 4.588-13.597a.467.467 0 0 1 .552-.104.462.462 0 0 1 .249.505c-.049.097-4.7 9.883-4.5 13.131a.465.465 0 0 1-.433.498Z" />
  <path fill="#263238"
    d="M101.544 168.449c-3.043 0-8.511-1.604-11.13-3.152-2.738-1.605-1.905-7.524-1.177-12.754.088-.642.177-1.276.257-1.877.32-2.487.24-7.268.152-11.896-.096-5.463-.184-10.628.32-12.77.929-4.011 8.976-18.77 9.32-19.396a.45.45 0 0 1 .624-.184.457.457 0 0 1 .185.625c-.08.153-8.328 15.321-9.232 19.163-.473 2.03-.377 7.38-.288 12.546.08 4.66.168 9.481-.16 12.032-.08.61-.169 1.243-.265 1.885-.648 4.693-1.465 10.54.729 11.824 2.73 1.604 9.144 3.393 11.506 2.959 1.161-.208 5.1-1.347 7.302-7.139 1.793-4.708 2.29-20.286 2.29-21.906a10.44 10.44 0 0 0-1.321-2.655c-1.113-1.877-1.602-2.8-1.153-3.321.448-.521 1.033-.128 1.273 0a13.455 13.455 0 0 1 2.794 1.877l.545.425v-.136c-.2-.73-.425-1.38-.609-1.901-.384-1.131-.6-1.757-.24-2.174a.922.922 0 0 1 .921-.217c1.217.241 1.881.153 2.402-.337.624-.673 11.618-18.449 12.394-22.299.881-4.267.801-9.016-.168-10.572a59.108 59.108 0 0 0-2.53-3.682.466.466 0 0 1 .096-.65.455.455 0 0 1 .649.089s1.417 1.893 2.57 3.746c1.273 2.045 1.105 7.323.296 11.229-.808 3.907-12.034 22.115-12.723 22.805-.896.899-2.057.802-3.202.594.094.398.215.789.36 1.171.184.537.416 1.203.624 1.965.161.602.281 1.211-.144 1.484-.424.273-.953-.088-1.841-.802a12.726 12.726 0 0 0-2.603-1.757h-.048a18.13 18.13 0 0 0 1.113 2.046c.897 1.524 1.45 2.494 1.45 3.128 0 .161-.361 17.005-2.346 22.235-2.402 6.249-6.726 7.492-8.007 7.725a5.404 5.404 0 0 1-.985.024Z" />
  <path fill="#263238"
    d="M143.659 153.81c-.408 0-.8 0-1.113-.048-1.921-.144-8.599-2.342-14.492-4.275-3.539-1.164-6.878-2.263-8.543-2.704a15.425 15.425 0 0 1-7.431-4.813.474.474 0 0 1-.106-.162.47.47 0 0 1 .317-.618.47.47 0 0 1 .374.064.451.451 0 0 1 .136.139 14.823 14.823 0 0 0 6.942 4.484c1.697.449 5.052 1.548 8.599 2.719 5.557 1.821 12.467 4.099 14.276 4.235 2.707.209 7.295-.369 8.808-2.807 1.513-2.439 1.754-8.382 1.337-9.842l-.056-.201c-.496-1.757-1.657-5.888-5.445-7.147-4.74-1.604-13.011-3.858-13.891-3.706-.185 0-.385.498-.505.762-.184.417-.376.843-.801.851-.424.008-.704-.49-.8-.698-.168-.337-.337-.73-.505-1.139-.256-.618-.8-1.901-1.097-1.974a8.039 8.039 0 0 0-1.033 1.163c-.736.947-1.233 1.605-1.793 1.372-.561-.233-.497-.802-.497-1.027a8.84 8.84 0 0 1 .209-1.668c.256-1.3.264-1.749-.601-2.078-2.05-.802-2.506-4.179-2.506-5.422a.466.466 0 0 1 .464-.465.465.465 0 0 1 .465.465c0 .802.328 3.962 1.905 4.556 1.578.594 1.41 1.949 1.185 3.12a9.49 9.49 0 0 0-.152 1.396c.2-.224.441-.537.625-.802.34-.483.735-.924 1.177-1.316a.95.95 0 0 1 .801-.176c.736.201 1.185 1.275 1.705 2.511.144.345.288.69.424.986.217-.481.513-1.131 1.137-1.291 1.185-.289 11.282 2.687 14.413 3.73 4.243 1.42 5.549 6.04 6.037 7.781l.056.192c.48 1.669.304 7.845-1.441 10.596-1.658 2.591-5.861 3.257-8.584 3.257Zm61.886 30.353a3.312 3.312 0 0 1-.488 0 .468.468 0 0 1-.393-.529.465.465 0 0 1 .529-.393c.064 0 5.605.674 10.481-8.679 4.203-8.022 4.404-10.428 4.34-11.038-.153.113-.353.297-.537.466a5.668 5.668 0 0 1-1.649 1.171c-.921.369-10.858 8.823-12.891 17.727a.465.465 0 0 1-.373.352.485.485 0 0 1-.347-.078.458.458 0 0 1-.185-.483c2.13-9.321 12.362-17.944 13.451-18.385a4.608 4.608 0 0 0 1.362-.986 2.61 2.61 0 0 1 1.177-.802.676.676 0 0 1 .704.28c1.105 1.476-2.178 8.27-4.235 12.185-4.444 8.47-9.393 9.192-10.946 9.192Z" />
  <path fill="#263238"
    d="M206.25 183.072a.468.468 0 0 1-.297-.826c.064-.048 6.334-5.382 9.048-11.158a.465.465 0 0 1 .841.393c-2.802 5.968-9.024 11.23-9.288 11.479a.471.471 0 0 1-.304.112Zm-1.097-11.206h-.04a.465.465 0 0 1-.175-.047.455.455 0 0 1-.25-.45c.633-7.628 4.348-15.497 11.042-23.374.28-.337.472-.562.552-.674a8.22 8.22 0 0 0 .441-.802c.544-1.027.985-1.829 1.601-1.653.617.177.801.802.633 4.011-.337 6.417-4.7 18.834-4.885 19.356a.472.472 0 0 1-.082.174.478.478 0 0 1-.331.18.475.475 0 0 1-.356-.124.473.473 0 0 1-.146-.347.453.453 0 0 1 .043-.188c.048-.129 4.508-12.794 4.804-19.099a17.52 17.52 0 0 0 0-2.768c-.168.265-.369.642-.497.883-.128.24-.352.666-.496.874-.144.209-.304.377-.617.746-6.565 7.733-10.2 15.417-10.817 22.845a.466.466 0 0 1-.424.457Z" />
  <path fill="#263238"
    d="M205.385 176.471h-.128a.463.463 0 0 1-.312-.578c2.698-9.257 8.992-20.856 9.056-21a.443.443 0 0 1 .453-.239c.06.006.118.025.171.055a.438.438 0 0 1 .139.114.452.452 0 0 1 .045.511c-.064.12-6.301 11.663-8.975 20.856a.462.462 0 0 1-.449.281Z" />
  <path fill="#263238"
    d="M202.574 183.225a.452.452 0 0 1-.32-.129c-.32-.304-7.815-7.66-6.942-16.844.761-8.022 2.706-15.57 4.244-16.557a.807.807 0 0 1 .72-.112c.921.321 1.113 1.677 1.353 3.401.132 1.371.438 2.719.913 4.011 1.289 3.04 4.404 16.965 2.73 24.505a.46.46 0 0 1-.545.323.461.461 0 0 1-.359-.523c1.601-7.356-1.418-20.968-2.683-23.944a17.078 17.078 0 0 1-.976-4.219c-.153-1.067-.337-2.407-.681-2.623-.865.545-2.947 6.93-3.795 15.85-.801 8.711 6.589 15.986 6.661 16.043a.452.452 0 0 1 .125.515.452.452 0 0 1-.177.214.453.453 0 0 1-.268.073v.016Z" />
  <path fill="#263238"
    d="M203.215 182.126a.476.476 0 0 1-.424-.273c-4.004-8.872-4.652-21.329-4.652-21.449a.458.458 0 0 1 .432-.49.457.457 0 0 1 .465.442c0 .12.68 12.409 4.58 21.12a.471.471 0 0 1 .008.352.46.46 0 0 1-.409.298Zm-.545-22.958a.46.46 0 0 1-.464-.433c-.713-12.24 4.355-22.805 6.79-27.874.446-.876.844-1.776 1.193-2.695.536-1.805 1.225-2.11 1.697-2.046.697.089 1.641.939 1.81 7.155.216 7.845-2.066 21.562-2.082 21.658a.472.472 0 0 1-.189.304.462.462 0 0 1-.518.017.48.48 0 0 1-.208-.291.465.465 0 0 1-.006-.182c0-.137 2.282-13.773 2.074-21.522-.152-5.783-1.009-6.256-1.017-6.264a3.206 3.206 0 0 0-.673 1.395 25.677 25.677 0 0 1-1.249 2.832c-2.402 5.005-7.39 15.417-6.694 27.417a.46.46 0 0 1-.44.489l-.024.04Z" />
  <path fill="#263238"
    d="M204.976 169.885a.472.472 0 0 1-.464-.417c-.153-1.388.344-3.505 1.257-7.356a378.879 378.879 0 0 0 1.657-7.339 207.228 207.228 0 0 0 2.955-20.856.482.482 0 0 1 .504-.425.459.459 0 0 1 .4.325c.017.058.023.12.016.18a208.28 208.28 0 0 1-2.962 20.968 404.72 404.72 0 0 1-1.674 7.348c-.88 3.754-1.369 5.815-1.233 7.051a.465.465 0 0 1-.408.513l-.048.008Zm7.143 16.604a.472.472 0 0 1-.449-.328.469.469 0 0 1 .313-.578l.945-.297a.754.754 0 0 1-.129-.088.68.68 0 0 1-.192-.674c.159-.479.394-.928.697-1.331l.104-.153c-1.738.658-4.148 1.372-5.805.65a.464.464 0 0 1-.248-.61.473.473 0 0 1 .616-.24c1.602.69 4.372-.385 5.293-.738.328-.129.929-.361 1.249.048.32.409 0 .89-.432 1.556a8.256 8.256 0 0 0-.441.706c.264-.064.625-.177.913-.265a8.667 8.667 0 0 1 2.402-.513c.512 0 .665.248.689.457.064.433.112.714-5.381 2.406l-.144-.008Zm-11.066-3.537a.417.417 0 0 1-.216-.056 14.02 14.02 0 0 1-3.411-2.623c-.761-.802-1.321-1.019-1.602-.947a.306.306 0 0 0-.129.102.309.309 0 0 0-.055.155.667.667 0 0 1-.416.546c-.441.168-.873-.185-1.377-.594l-.129-.096v.16c.081.939.209 2.35-.8 2.816a.472.472 0 0 1-.511-.085.457.457 0 0 1-.147-.325.458.458 0 0 1 .126-.335.497.497 0 0 1 .147-.106c.409-.184.313-1.251.257-1.885-.056-.633-.096-1.147.288-1.363.384-.217.841.104 1.337.497l.384.305a1.173 1.173 0 0 1 .753-.682c.408-.12 1.273-.12 2.506 1.203.926.955 1.99 1.766 3.155 2.407a.466.466 0 0 1 .2.633.48.48 0 0 1-.145.183.483.483 0 0 1-.215.09Zm-160.603-.57a18.28 18.28 0 0 1-2.473-.168c-3.636-.489-8.936-2.407-13.516-8.535-7.599-10.211-7.895-18.521-8.007-22.075 0-.537 0-.954-.072-1.259-.2-1.604 0-3.498.937-3.891.24-.112.729-.192 1.249.442a3.12 3.12 0 0 1 .576 1.604c.169 1.027.36 2.198 2.627 3.521 4.74 2.752 20.53 12.907 24.901 27.987a.465.465 0 1 1-.889.257c-4.275-14.744-19.817-24.73-24.477-27.442-2.65-1.54-2.898-3.064-3.074-4.171a2.339 2.339 0 0 0-.377-1.139.589.589 0 0 0-.208-.184c-.152.096-.568 1.139-.344 2.928 0 .32.056.802.08 1.339.12 3.465.408 11.575 7.83 21.554 4.372 5.887 9.4 7.684 12.852 8.165 2.18.323 4.405.192 6.533-.385a.462.462 0 0 1 .585.297.455.455 0 0 1-.137.498.448.448 0 0 1-.16.088c-1.442.41-2.937.601-4.435.569Z" />
  <path fill="#263238"
    d="M44.84 180.746h-.081c-.296-.056-7.374-1.323-15.005-8.142a35.339 35.339 0 0 1-9.944-16.187.464.464 0 0 1 .344-.561.462.462 0 0 1 .485.18.458.458 0 0 1 .075.165 34.292 34.292 0 0 0 9.657 15.722c7.414 6.633 14.476 7.909 14.548 7.917a.47.47 0 0 1 .377.537.458.458 0 0 1-.457.369Zm4.531-.16a.462.462 0 0 1-.497-.418.46.46 0 0 1 .417-.497c.088 0 8.807-1.837 9.136-18.032.4-17.864-3.203-26.422-5.437-28.66-.464-.474-.873-.698-1.073-.618-.857.337-.929 4.275-.969 6.626-.064 3.144-1.601 6.168-3.667 10.363a289.28 289.28 0 0 0-2.354 4.813c-3.13 6.746-1.45 18.385-1.433 18.497a.47.47 0 0 1-.06.376.46.46 0 0 1-.805-.051.462.462 0 0 1-.048-.188c-.072-.482-1.745-12.032 1.505-19.027.801-1.805 1.658-3.425 2.403-4.861 2.033-4.083 3.507-7.027 3.563-9.962.072-4.172.224-6.947 1.553-7.476.905-.361 1.785.537 2.074.802 3.098 3.136 6.06 13.428 5.709 29.334-.385 17.005-9.513 18.85-9.897 18.922l-.12.057Zm-10.818 4.139c-2.73-.097-2.826-.578-2.874-.802-.048-.225.144-.61.617-.803a4.06 4.06 0 0 1 2.113-.328 3.998 3.998 0 0 0 1.602-.153c1.225-.377 1.417-.842 1.417-.842a.463.463 0 0 1 .374-.345.466.466 0 0 1 .178.008.48.48 0 0 1 .345.569c0 .153-.297.963-2.042 1.5a5.04 5.04 0 0 1-1.946.193 4.058 4.058 0 0 0-1.033 0c.377.048.801.08 1.258.096a.464.464 0 1 1 0 .931l-.008-.024Z" />
  <path fill="#263238"
    d="M52.589 182.086a.461.461 0 0 1-.336-.145.464.464 0 0 1 0-.657c.293-.269.561-.565.8-.883l-.048.048c-.328.393-.8.979-1.465.65a2.304 2.304 0 0 1-1.049-1.428.466.466 0 0 1 .696-.505c.105.065.18.168.209.289.087.329.292.615.576.802.097-.152.207-.294.329-.425.336-.393.905-1.059 1.601-.594a.804.804 0 0 1 .344.602c.048.746-.912 1.724-1.329 2.109a.497.497 0 0 1-.328.137Zm-3.274-3.53a.475.475 0 0 1-.185 0 .46.46 0 0 1-.232-.618 74.881 74.881 0 0 0 4.916-35.542.476.476 0 0 1 .409-.522.469.469 0 0 1 .46.236.476.476 0 0 1 .052.173c2.306 19.557-4.924 35.872-4.996 36.041a.465.465 0 0 1-.424.232Zm-6.566-7.652a.463.463 0 0 1-.416-.249c-.056-.12-6.118-12.184-4.164-30.257a90.105 90.105 0 0 1 5.397-22.957c.928-2.575 1.537-4.275 1.369-5.334-.088-.546-.8-5.358.52-5.952.264-.12.697-.136 1.193.473 1.393 1.717 5.605 14.712 5.357 25.436a.465.465 0 1 1-.929 0c.248-10.813-4.075-23.511-5.148-24.866l-.128-.137c-.24.514-.329 2.471.056 4.885.2 1.292-.44 3.081-1.418 5.792a89.673 89.673 0 0 0-5.348 22.741c-1.922 17.783 4.003 29.615 4.067 29.735a.457.457 0 0 1-.2.626.477.477 0 0 1-.208.064Z" />
  <path fill="#263238"
    d="M42.901 160.476a.464.464 0 0 1-.464-.449c0-.169-.104-4.075 1.41-12.53 1.513-8.454 3.202-28.468 3.202-28.676a.481.481 0 0 1 .505-.425.46.46 0 0 1 .4.324.46.46 0 0 1 .016.181c0 .2-1.722 20.342-3.203 28.765-1.481 8.422-1.401 12.288-1.393 12.328a.484.484 0 0 1-.457.482h-.016Zm-11.45-.618a.477.477 0 0 1-.352-.16c-.064-.08-6.71-7.805-8.335-18.177-1.626-10.371-2.314-13.829-3.363-15.321-.609-.874-.633-1.812-.056-2.35.312-.297 1.601-1.083 4.443 1.26 3.772 3.088 12.66 14.438 14.901 21.842a.467.467 0 0 1-.32.552.464.464 0 0 1-.569-.287c-2.153-7.115-10.993-18.45-14.604-21.386-1.802-1.475-2.915-1.604-3.203-1.299-.176.168-.176.61.192 1.131 1.17 1.66 1.834 5.021 3.515 15.714 1.602 10.107 8.063 17.647 8.127 17.711a.463.463 0 0 1-.048.658.469.469 0 0 1-.328.112Z" />
  <path fill="#263238"
    d="M41.636 168.345a.457.457 0 0 1-.36-.168c0-.049-3.907-4.733-9.048-12.217-5.14-7.484-7.934-21.072-8.055-21.658a.468.468 0 0 1 .2-.477.466.466 0 0 1 .713.293c0 .144 2.843 13.925 7.911 21.313 5.069 7.387 8.96 12.096 9 12.144a.474.474 0 0 1-.36.77ZM28.12 130.869a.479.479 0 0 1-.44-.337c0-.096-2.946-9.931-3.859-16.332-.216-1.548-.424-2.815-.592-3.858-.449-2.719-.617-3.746-.08-4.259a1.135 1.135 0 0 1 1.048-.217c1.506.297 14.18 9.987 17.24 21.177a.464.464 0 1 1-.898.24c-2.906-10.604-15.133-20.238-16.518-20.51a.69.69 0 0 0-.248 0c-.16.232.088 1.716.368 3.441.169 1.035.377 2.318.6 3.874.898 6.337 3.796 16.099 3.828 16.195a.468.468 0 0 1-.312.578.367.367 0 0 1-.136.008Z" />
  <path fill="#263238"
    d="M38.33 144.738a.455.455 0 0 1-.457-.377 29.031 29.031 0 0 0-4.492-9.962c-3.715-5.423-5.973-17.519-6.061-18.033a.463.463 0 0 1 .368-.545.48.48 0 0 1 .544.377c0 .12 2.307 12.417 5.91 17.647a29.419 29.419 0 0 1 4.644 10.324.454.454 0 0 1-.206.473.453.453 0 0 1-.17.064l-.08.032Zm5.467-26.118a.468.468 0 0 1-.323-.147.465.465 0 0 1-.125-.334c.168-4.436-.376-7.364-1.946-10.428l-.184-.345c-3.09-6.088-6.718-13.403-7.246-15.938-.344-1.605-.88-2.254-1.137-2.262-.056 0-.72.056-1.53 2.743-1.376 4.54 1.858 21.457 1.898 21.658a.466.466 0 1 1-.912.176c-.136-.706-3.315-17.318-1.874-22.075.689-2.294 1.481-3.409 2.402-3.409h.008c1.201.048 1.77 1.901 2.002 3 .576 2.736 5.364 12.161 7.206 15.706l.176.353c1.65 3.209 2.226 6.297 2.05 10.901a.463.463 0 0 1-.465.401Z" />
  <path fill="#263238"
    d="M40.483 126.048a.47.47 0 0 1-.464-.425c0-.056-.448-5.944-.889-9.698-.44-3.754-4.804-10.668-4.868-10.733a.471.471 0 0 1 .8-.497c.185.289 4.549 7.219 5.005 11.118.456 3.898.889 9.682.897 9.738a.466.466 0 0 1-.425.497h-.056Z" />
  <ellipse cx="126.909" cy="129.546" fill="#263238" rx=".4" ry=".401" />
  <ellipse cx="132.113" cy="130.749" fill="#263238" rx=".801" ry=".802" />
  <ellipse cx="126.509" cy="129.145" fill="#263238" rx=".801" ry=".802" />
  <ellipse cx=".603" cy="3.016" fill="#263238" rx=".603" ry="3.016"
    transform="rotate(26.535 -203.288 258.59) skewX(.083)" />
</svg>