<svg 
  width="312" 
  height="281"
  viewBox="0 0 312 281"
  fill="none" 
  xmlns="http://www.w3.org/2000/svg" 
>
  <path fill="#263238"
    d="M139.918 135.241c-6.433.429-12.688-2.326-15.011-3.757h-1.072l-1.072 5.903v6.44l2.68 6.977s2.145 2.684 2.681 2.684-7.505 16.636-7.505 16.636v30.054l-1.609 14.49 2.145 5.903c-1.966-.536-2.895-.644 9.113 3.22 12.008 3.864 17.512-8.05 18.763-14.49.536-7.155 1.608-21.037 1.608-19.32 0 1.717 7.505 5.009 11.258 6.44 8.935 2.862 27.662 8.587 31.093 8.587 3.431 0 7.505-1.431 9.113-2.147 5.361-4.83 2.145-18.247 1.608-19.857-.428-1.288-3.037-3.399-4.288-4.293-1.731-.993-3.021-1.576-6.433-2.683l-14.474-3.757-1.073 2.683c-.054-.492-.389-.847-1.608-1.61l-2.144-3.756-2.144 2.683-2.145 1.073v-1.61l1.072-3.22-1.072-1.61c-.357-.179-1.179-.644-1.608-1.073-.429-.429-.893-1.252-1.072-1.61l-.536-4.83c1.302-2.479 4.01-8.673 5.897-12.88 1.899-4.237 2.144-12.701 1.608-16.637l-4.289-5.903c-17.69 12.343-21.443 10.733-29.484 11.27Z" />
  <path fill="#263238"
    d="M127.277 154.475a.629.629 0 0 1-.504-.258c-1.684-2.361-4.761-9.252-5.082-12.429-.322-3.177 1.49-10.733 1.565-11.077a.623.623 0 0 1 1.211.279c0 .086-1.833 7.707-1.543 10.734.289 3.027 3.291 9.66 4.856 11.806a.636.636 0 0 1 .111.464.624.624 0 0 1-.25.406.648.648 0 0 1-.364.075Z" />
  <path fill="#fff"
    d="m136.101 224.639-4.085-.29c4.428-1.191 7.172-8.329 8.888-13.234a86.11 86.11 0 0 1 .943-2.609c1.523-3.982 1.662-16.379 1.576-21.144-.632-2.244-2.337-7.707-3.538-9.478a3.23 3.23 0 0 1-.514-2.49c.375-1.803 2.219-2.973 3.838-3.993a15.184 15.184 0 0 0 1.576-1.073c.365-2.297 3.034-3.016 5.018-3.542.622-.172 1.211-.333 1.672-.505 1.92-1.76 10.325-17.839 12.17-26.479 1.565-7.288-1.073-9.864-1.073-9.885l2.423-2.834c.451.376 4.364 3.971 2.327 13.503-1.587 7.406-10.775 27.692-14.27 29.098-.737.276-1.489.509-2.252.697-.801.178-1.581.441-2.327.784-.236 1.503-1.694 2.426-3.216 3.402a13.35 13.35 0 0 0-2.123 1.46c1.758 2.855 3.72 9.746 3.946 10.551l.064.462c0 1.76.279 17.323-1.823 22.797-.289.773-.589 1.61-.9 2.491-1.92 5.559-1.984 10.615-8.32 12.311Zm69.101-37.223c-2.927-1.439-10.55-2.941-15.118-3.907a196.922 196.922 0 0 1-4.9-1.074 9.06 9.06 0 0 0-6.229.752c-.57.249-1.158.458-1.758.622-2.316.58-3.892-1.696-5.029-3.359-.128-.183-.268-.398-.418-.591-1.447.848-3.441 2.007-5.361 1.46a3.37 3.37 0 0 1-2.058-1.75 14.431 14.431 0 0 1-1.072-3.305c-.354-1.492-.601-2.437-1.341-3.027-2.53-2.018-2.519-2.973-2.573-3.22l1.898-3.102a19.133 19.133 0 0 0 3.002 3.456 8.244 8.244 0 0 1 2.638 5.088c.161.79.398 1.562.707 2.307a10.389 10.389 0 0 0 2.252-1.073 7.003 7.003 0 0 1 1.694-.816c1.683-.418 2.712 1.074 3.699 2.501.404.627.863 1.216 1.372 1.76.268-.086.59-.214.944-.365a12.628 12.628 0 0 1 8.577-.901c1.19.3 2.841.644 4.75 1.073a60.72 60.72 0 0 1 13.209 4.122l1.115 3.349Z" />
  <path fill="#263238"
    d="M226.323 207.616a.661.661 0 0 1-.343-.097c-6.926-4.518-22.515-5.796-22.687-5.806a.63.63 0 0 1-.468-.194.618.618 0 0 1-.095-.726.622.622 0 0 1 .66-.315c.654 0 16.082 1.31 23.266 6a.624.624 0 0 1 .275.634.63.63 0 0 1-.608.504Zm-5.575-12.215a5.117 5.117 0 0 1-1.426-.236c-2.219-.633-13.938-6.934-14.41-7.202a.623.623 0 0 1-.257-.837.635.635 0 0 1 .847-.258c4.171 2.254 12.491 6.623 14.152 7.106a2.49 2.49 0 0 0 1.405.139.618.618 0 0 1 .671-.458.625.625 0 0 1 .551.598 1.076 1.076 0 0 1-.45.837c-.317.22-.698.329-1.083.311Z" />
  <path fill="#263238"
    d="M227.299 187.104s-5.897 5.753-5.897 6.376c0 .622 4.192 4.347 4.503 5.592.311 1.245 3.11-.311 3.882 0 .772.311.622 2.49-1.555 2.952-2.176.461-2.016 6.064-1.244 6.837.772.773 7.505 4.197 11.183 8.082 3.677 3.886 5.747 7.771 7.291 8.394 1.544.622 3.109 1.073 3.57-2.018.461-3.091.933-9.789-3.099-14.608-4.031-4.82-5.746-5.292-6.99-5.292-1.244 0-3.217.161-2.477-1.546.74-1.706 2.477-3.22 1.855-4.669-.622-1.449-5.479-10.561-11.022-10.1Z" />
  <path fill="#263238"
    d="M248.828 227.612a2.47 2.47 0 0 1-2.262-1.224.604.604 0 0 1-.034-.471.609.609 0 0 1 .313-.355.62.62 0 0 1 .825.268c.054.086.472.784 1.78.462 1.791-.451 3.217-.966 3.581-3.091a22.561 22.561 0 0 0-2.712-13.396 27.727 27.727 0 0 0-4.911-5.602c-1.683-1.578-3.002-2.823-3.099-4.154 0-.483 0-.966-.053-1.471a12.209 12.209 0 0 0-1.072-5.603c-1.405-2.801-4.739-6.44-7.902-7.781-2.906-1.192-4.225-.666-5.361 2.146a.624.624 0 0 1-.815.333.625.625 0 0 1-.332-.816c1.447-3.456 3.484-4.293 7.022-2.822 3.539 1.47 7.055 5.366 8.578 8.382a13.232 13.232 0 0 1 1.243 6.118c0 .487.022.959.065 1.417.053.837 1.286 1.997 2.702 3.327a28.707 28.707 0 0 1 5.125 5.872 23.632 23.632 0 0 1 2.873 14.264c-.536 2.845-2.52 3.575-4.503 4.068a3.654 3.654 0 0 1-1.051.129Zm-110.519-97.373c-3.055 0-8.577-.397-11.461-3.081a17.988 17.988 0 0 1-3.002-3.606 12.243 12.243 0 0 0-2.005-2.501 4.604 4.604 0 0 1-1.362-4.937.62.62 0 0 1 .804-.344.615.615 0 0 1 .399.566.594.594 0 0 1-.045.239 3.37 3.37 0 0 0 1.072 3.564 13.6 13.6 0 0 1 2.145 2.726 16.62 16.62 0 0 0 2.809 3.381c2.98 2.769 9.649 2.801 11.558 2.737a.621.621 0 0 1 0 1.245l-.912.011Z" />
  <path fill="#263238"
    d="M142.877 135.777a46.396 46.396 0 0 1-15.204-2.383c-6.572-2.576-6.433-5.366-6.164-6.128.081-.281.178-.557.289-.827.257-.644.354-.88 0-1.459-.879-1.331-.161-4.219-.075-4.541a.621.621 0 0 1 .75-.45.636.636 0 0 1 .451.762c-.29 1.073-.504 2.919-.086 3.542a2.4 2.4 0 0 1 .161 2.608 4.407 4.407 0 0 0-.247.697c-.289 1.074.954 2.888 5.361 4.637 5.361 2.147 19.042 3.929 27.137 0 13.134-6.332 14.066-8.672 14.034-9.241-.032-.569-.086-1.073-.15-1.717a11.609 11.609 0 0 1 .193-5.174c.729-1.889 1.458-3.767.708-6.118a29.605 29.605 0 0 1-.762-6.558c-.075-1.46-.139-2.844-.289-3.896a13 13 0 0 0-1.748-5.367.606.606 0 0 1-.225-.417.611.611 0 0 1 .14-.452.63.63 0 0 1 .879-.086c.9.762 1.822 3.746 2.144 6.193.172 1.073.236 2.522.311 4.014a28.18 28.18 0 0 0 .708 6.247c.879 2.769 0 4.948-.708 6.869a10.743 10.743 0 0 0-.15 4.669c.064.623.129 1.224.161 1.782.064 1.395-1.383 3.993-14.743 10.422-3.581 1.718-8.266 2.372-12.876 2.372Z" />
  <path fill="#263238"
    d="M198.748 136.851a40.48 40.48 0 0 1-8.267-1.074c-2.498-.579-2.991-3.853-3.356-6.247a7.64 7.64 0 0 0-.589-2.415c-1.48-.987-1.716-1.856-1.716-4.132a5.26 5.26 0 0 0-1.458-3.113 13.658 13.658 0 0 1-1.372-2.146c-.869-1.739-3.882-10.24-3.153-12.687.515-1.707-1.565-5.57-4.996-6.902-3.731-1.46-11.183-6.075-11.493-6.268a.62.62 0 0 1 .183-1.135.635.635 0 0 1 .471.072c.075 0 7.666 4.755 11.289 6.172 3.914 1.524 6.433 5.979 5.737 8.415-.526 1.782 1.983 9.596 3.066 11.807.381.686.822 1.336 1.319 1.943a6.439 6.439 0 0 1 1.704 3.864c0 2.146.204 2.458 1.169 3.102.686.461.869 1.631 1.072 3.22.333 2.146.74 4.83 2.402 5.216 5.747 1.32 12.244 1.664 12.93-.676.579-1.964.333-5.077.107-7.825a26.848 26.848 0 0 1-.128-5.141c.268-1.9-3.217-15.113-5.361-23.002-1.019-3.842-1.823-6.87-2.08-8.071-.751-3.542-22.43-19.256-27.984-21.467-4.781-1.943-11.922-4.497-18.784-4.294a.559.559 0 0 1-.482-.203 23.687 23.687 0 0 0-3.41-3.274l-.375.408c-1.48 1.6-4.943 5.367-9.907 4.723a28.365 28.365 0 0 1-7.934-2.04 2.254 2.254 0 0 1-.557 1.556l-.097.076c-.107.075-2.648 1.663-9.649 1.073-6.755-.612-10.465-.945-16.941-7.428-1.812-1.813-3.913-4.025-6.154-6.375-5.168-5.55-11.065-11.742-13.316-12.87-2.573-1.288-7.205-1.803-8.878-1.953-.182 1.964-1.136 7.696-5.982 9.66 0 .773.343 3.048 3.313 6.945l1.64 2.146c5.007 6.633 16.747 22.165 20.468 23.764 1.2.515 3.216 1.234 5.51 2.06 6.273 2.255 14.089 5.056 16.415 7.396 1.973 1.964 3.667 9.467 5.168 16.1.879 3.864 1.791 7.868 2.327 8.512a12.719 12.719 0 0 0 3.774 2.479 6.84 6.84 0 0 1 2.477 1.621.62.62 0 0 1-.183.859.633.633 0 0 1-.857-.172 8.803 8.803 0 0 0-1.995-1.202 13.608 13.608 0 0 1-4.17-2.791c-.697-.826-1.394-3.821-2.584-9.027-1.287-5.86-3.12-13.803-4.836-15.531-2.144-2.147-10.121-5.012-15.954-7.105-2.326-.838-4.288-1.557-5.585-2.147-4.021-1.728-15.472-16.873-20.961-24.15l-1.64-2.147c-4.097-5.367-3.593-8.018-3.517-8.297a.59.59 0 0 1 .396-.44c5.361-1.803 5.576-9.199 5.586-9.274a.622.622 0 0 1 .654-.6c.268 0 6.583.44 9.971 2.146 2.434 1.267 8.16 7.267 13.692 13.073 2.23 2.34 4.289 4.551 6.133 6.354 6.154 6.161 9.499 6.44 16.168 7.074 5.875.536 8.341-.58 8.76-.805.127-.294.182-.614.16-.934 0-.354 0-1.17.762-1.17.267.034.525.118.761.247a26.713 26.713 0 0 0 7.794 2.04c4.289.547 7.506-2.877 8.846-4.294.238-.301.52-.566.836-.784.365-.171 1.072-.504 4.589 3.456 6.99-.128 14.185 2.437 19.009 4.401 5.586 2.286 27.802 18.032 28.724 22.412.246 1.17 1.072 4.185 2.069 8.007 3.12 11.677 5.672 21.466 5.361 23.495a26.192 26.192 0 0 0 .139 4.873c.225 2.855.483 6.086-.161 8.265-.557 1.975-3.184 2.576-6.089 2.576Z" />
  <path fill="#263238"
    d="M135.189 70.915a17.286 17.286 0 0 1-5.628-.912c-6.198-2.147-6.133-4.24-6.058-4.637a.622.622 0 0 1 .713-.52.627.627 0 0 1 .52.713c0 .108.246 1.546 5.232 3.22a17.385 17.385 0 0 0 18.977-5.806.624.624 0 0 1 .414-.231.611.611 0 0 1 .455.134.632.632 0 0 1 .096.88 18.859 18.859 0 0 1-14.721 7.16Z" />
  <path fill="#E8E8E8" d="M80.916 21.756 4.128 8.286l70.988 2.49 5.8 10.98Z" />
  <path fill="#D9D9D9" d="M68.276 10.53V7.04L4.128 8.286l64.148 2.243Z" />
  <path fill="#E8E8E8" d="M72.436 6.966 59.184 0 4.128 8.286l68.308-1.32Z" />
  <path fill="#263238"
    d="M65.188 47.549a.579.579 0 0 1-.472-.215c-.097-.107-9.52-11.066-12.33-13.277-.579-.45-1.18-.945-1.801-1.449a37.162 37.162 0 0 0-8.31-5.646c-3.86-1.631-8.791-9.574-8.995-9.918a.627.627 0 0 1 .688-.929.623.623 0 0 1 .384.286c0 .075 4.932 7.931 8.438 9.423 3.066 1.3 6.004 3.703 8.577 5.818l1.78 1.438c2.916 2.286 12.116 12.988 12.512 13.45a.612.612 0 0 1-.064.869.6.6 0 0 1-.407.15Z" />
  <path fill="#9E9E9E"
    d="M46.371 15.606 5.78 8.286l42.072 12.665-1.48-5.345Zm7.666 7.202 15.086 4.54 1.072-7.459-17.927-3.22s.397 2.33.622 3.22a22.19 22.19 0 0 0 1.147 2.92Z" />
  <path fill="#263238"
    d="M129.732 64.497h-.172a.616.616 0 0 1-.375-.297.617.617 0 0 1-.054-.476s1.169-4.132 0-6.977a.621.621 0 0 1 .102-.726.625.625 0 0 1 .722-.125.624.624 0 0 1 .324.39c1.318 3.22.075 7.6 0 7.782a.625.625 0 0 1-.547.429Zm13.852-2.168a.623.623 0 0 1-.504-.258c-1.694-2.34-4.524-6.44-4.417-7.588a.634.634 0 0 1 .676-.558.643.643 0 0 1 .568.676c0 .654 2.144 4.014 4.181 6.74a.62.62 0 0 1-.504.987Zm69.38 96.686a2.179 2.179 0 0 1-.44-.054c-1.715-.375-8.427-7.255-9.649-8.93a9.928 9.928 0 0 0-3.528-2.812 6.833 6.833 0 0 0-1.243 3.22c-.129 1.589-.375 3.145-1.298 3.778a1.701 1.701 0 0 1-1.511.183c-1.909-.58-1.619-2.351-1.212-4.798l.14-.869a18.686 18.686 0 0 1 2.144-5.442c.171-.322.354-.676.45-.891-.493-.827-2.509-4.154-3.892-6.44a.637.637 0 0 1 .204-.859.624.624 0 0 1 .858.204c.654 1.073 3.892 6.365 4.042 6.676.15.312 0 .741-.569 1.846a17.592 17.592 0 0 0-2.004 5.067l-.151.869c-.418 2.554-.439 3.166.344 3.402.3.097.407 0 .461 0 .557-.375.707-2.232.761-2.844a6.925 6.925 0 0 1 1.898-4.293.916.916 0 0 1 .771-.129 11.07 11.07 0 0 1 4.289 3.327c1.651 2.147 7.913 8.244 8.953 8.469.118 0 .321.054.375-.054.054-.107 0-.966-.922-1.835-1.233-1.073-5.297-6.44-4.943-7.675a.746.746 0 0 1 .579-.536c.579-.118 1.158.3 4.471 3.22 1.705 1.513 4.289 3.789 4.932 3.918.248.049.499.084.751.107a6.25 6.25 0 0 0-.451-.687c-.514-.719-1.533-1.836-2.519-2.92a28.68 28.68 0 0 1-3.27-3.949.625.625 0 0 1 .257-.838.63.63 0 0 1 .847.247 29.458 29.458 0 0 0 3.077 3.703c1.072 1.159 2.059 2.254 2.616 3.027.558.773 1.072 1.578.633 2.147-.44.569-1.308.515-2.145.332-.836-.182-2.691-1.706-5.511-4.196-.75-.666-1.651-1.471-2.38-2.072a29.193 29.193 0 0 0 3.924 5.206c1.19 1.073 1.673 2.404 1.201 3.316a1.413 1.413 0 0 1-1.34.859Z" />
  <path fill="#263238"
    d="M219.247 153.82a5.952 5.952 0 0 1-2.509-.708.624.624 0 0 1 .172-1.088.62.62 0 0 1 .439.014 3.951 3.951 0 0 0 2.145.526l.053-.064s0-.365-1.19-1.449a62.973 62.973 0 0 1-5.361-6.44.732.732 0 0 1 0-.848c.74-.902 7.066 2.061 7.13 2.147a.35.35 0 0 0 .129 0s0-.505-.793-1.17c-.987-.805-6.509-2.834-14.786-5.431l-.15-.054c-1.758-.548-2.498-3.048-2.573-3.327a.623.623 0 0 1 1.19-.333c.172.579.804 2.146 1.748 2.479h.15c6.133 1.932 13.756 4.476 15.203 5.657 1.448 1.18 1.415 2.232 1.072 2.833a1.276 1.276 0 0 1-1.694.387c-.643-.322-3.023-1.267-4.61-1.814a51.063 51.063 0 0 0 4.289 4.991c1.125 1.073 1.597 1.792 1.576 2.436a1.352 1.352 0 0 1-.558.998 1.533 1.533 0 0 1-1.072.258ZM120.876 10.54s-7.677 1.975-8.706 6.183c-1.029 4.207 0 8.586 3.313 8.146 3.313-.44 7.655-3.316 10.55-3.112 2.895.203 2.284 1.298 1.244 3.134-1.04 1.835.825 4.948 6.004 3.499 5.179-1.45 5.361-4.143 9.103-3.113 3.742 1.03.332 9.531 1.201 10.734.868 1.202 1.072 2.898 3.023 0 1.951-2.899 4.889-6.838 7.988-5.797 3.098 1.042-2.895 7.042-5.994 8.287l-3.109 1.245s-1.244 8.694-3.109 9.939c0 0 12.426-1.653 17.154-6.01 4.729-4.359.622-4.294 1.448-6.623.825-2.33 5.586-2.447 5.586-5.27 0-2.823-.622-2.405-4.964-4.476-4.343-2.072-3.11-3.102-2.488-4.143.622-1.041 1.244-2.898-2.273-3.94-3.516-1.04-11.794-3.52-10.271-5.795 1.522-2.276 2.316-6.838-3.024-6.44-5.339.397-10.443 3.874-13.477 3.499-3.034-.376-5.832-1.181-9.199.053Z" />
  <path fill="#263238"
    d="M131.008 57.392h-.15l-1.394-.312c-3.613-.794-11.129-2.436-15.139-5.28-4.9-3.478-4.01-12.13-3.131-14.888.88-2.758 2.863-12.085 2.884-12.225a.614.614 0 0 1 .279-.397.57.57 0 0 1 .472-.075c.125.011.25.011.375 0a.644.644 0 0 1 .204-.065 20.467 20.467 0 0 0 4.717-1.524c2.145-.88 4.225-1.717 5.951-1.588.954.075 2.144.246 2.53 1.073.386.826-.096 1.792-.782 3.005a1.707 1.707 0 0 0 .203 1.879c.858 1.073 2.767 1.384 5.082.73a14.513 14.513 0 0 0 4.396-2.072c1.48-.955 2.638-1.707 5.05-1.073 2.981.837 2.295 5.098 1.801 8.221a10.158 10.158 0 0 0-.257 2.813c.161.225.3.472.44.708.108.232.253.446.429.633a6.185 6.185 0 0 0 1.072-1.352c1.747-2.544 4.996-7.277 8.706-6.032a1.718 1.718 0 0 1 1.286 1.631c.075 2.458-4.535 6.73-7.258 7.814l-2.809 1.127c-.376 1.503-1.984 7.792-3.088 9.789l-.215.408c-.686 1.352-2.144 4.186-4.899 5.645a.621.621 0 0 1-.881-.734.63.63 0 0 1 .302-.371c2.423-1.277 3.741-3.864 4.374-5.11l.236-.44c1.136-2.081 3.023-9.66 3.045-9.788a.607.607 0 0 1 .364-.43l3.11-1.245c2.391-.955 6.529-4.948 6.433-6.633 0-.16 0-.354-.44-.493-2.477-.827-4.964 2.146-7.28 5.57-.954 1.385-1.619 1.9-2.262 1.879-.643-.022-1.072-.677-1.405-1.256-.118-.204-.236-.419-.375-.623-.429-.6-.279-1.685 0-3.714.429-2.65 1.008-6.279-.901-6.815-1.908-.537-2.637 0-4.042.88a15.555 15.555 0 0 1-4.589 2.318c-4.063 1.138-5.832-.43-6.433-1.159a2.91 2.91 0 0 1-.31-3.22c.375-.676.889-1.588.761-1.825 0 0-.193-.29-1.512-.386-1.319-.097-3.452.708-5.361 1.503a23.452 23.452 0 0 1-4.91 1.588c-.165.061-.34.09-.515.086-.461 2.147-2.048 9.381-2.798 11.72-.751 2.34-1.609 10.455 2.669 13.504 3.796 2.694 11.151 4.293 14.678 5.076l1.426.312a.615.615 0 0 1 .387.28.623.623 0 0 1 .074.471.607.607 0 0 1-.6.462Z" />
  <path fill="#263238"
    d="M112.76 34.014a.559.559 0 0 1-.29-.075 12.192 12.192 0 0 1-5.714-7.642 4.372 4.372 0 0 1 0-2.866 1.566 1.566 0 0 1 1.511-.666c1.073.097 2.466 1.074 3.453 3.381a20.554 20.554 0 0 0 2.144 4.111.625.625 0 0 1-.573 1 .621.621 0 0 1-.413-.238 20.907 20.907 0 0 1-2.348-4.379c-.837-1.986-1.92-2.597-2.434-2.64-.247 0-.333.086-.354.118-.354.783.901 6.44 5.275 8.726a.625.625 0 0 1 .308.697.628.628 0 0 1-.597.473h.032Zm25.314-1.717h-.322a1.315 1.315 0 0 1-1.072-1.074c-.172-.73-1.716-1.77-2.766-2.275a.616.616 0 0 1-.32-.358.625.625 0 0 1 .03-.48.629.629 0 0 1 .352-.318.613.613 0 0 1 .474.029c.514.247 3.077 1.567 3.442 3.123 0 .097 0 .097.085.108a.827.827 0 0 0 .697-.344.61.61 0 0 0 0-.687c-.815-1.513-1.372-2.361-2.058-2.544a.623.623 0 1 1 .311-1.202c1.243.322 1.994 1.567 2.841 3.167a1.818 1.818 0 0 1-.14 2.017 2.05 2.05 0 0 1-1.554.838Zm-22.28-4.326a.67.67 0 0 1-.204 0 1.9 1.9 0 0 1-1.394-1.256 2.155 2.155 0 0 1 .515-1.76.631.631 0 0 1 .879 0 .624.624 0 0 1 0 .87c-.107.128-.289.44-.236.611.054.172.161.215.365.312a10.151 10.151 0 0 1 3.624-.902.89.89 0 0 0 .814-.622c.162-.37.192-.782.086-1.17a.622.622 0 0 1-.668-.857.616.616 0 0 1 .325-.324 1.073 1.073 0 0 1 1.169.225 2.504 2.504 0 0 1 .268 2.523 2.148 2.148 0 0 1-1.941 1.47 8.875 8.875 0 0 0-3.356.88.552.552 0 0 1-.246 0Z" />
  <path fill="#263238"
    d="M117.348 31.674a13.47 13.47 0 0 0-1.929-.633 8.176 8.176 0 0 0-.869-.183c-.332-.064-.686-.096-1.147-.225a2.145 2.145 0 0 1 2.348-.923 2.017 2.017 0 0 1 1.597 1.964Zm11.312 1.718a2.903 2.903 0 0 1 1.566-1.074 3.949 3.949 0 0 1 1.94-.064 4.01 4.01 0 0 1 1.716.87c.495.408.866.947 1.072 1.556-.611-.215-1.072-.462-1.608-.644a8.698 8.698 0 0 0-1.459-.44 7.546 7.546 0 0 0-1.501-.215c-.579 0-1.125 0-1.726.01Zm-7.688 7.395h-.118a18.04 18.04 0 0 1-3.216-.966 1.401 1.401 0 0 1-.793-.912c-.1-.758.092-1.525.536-2.147l3.066-6.043.107-.15a1.994 1.994 0 0 1 1.662-.698 2.41 2.41 0 0 1 1.598 1.149.68.68 0 0 1 .075.407s-.697 4.573-.772 6.44a2.941 2.941 0 0 1-1.962 2.92h-.183Zm.504-9.445-3.055 6.021a1.986 1.986 0 0 0-.408 1.202s0 .075.118.118c.9.369 1.834.65 2.788.837a1.811 1.811 0 0 0 .922-1.717c.075-1.717.6-5.367.75-6.343a1.07 1.07 0 0 0-.557-.387.773.773 0 0 0-.558.28v-.011Zm-8.073 2.018a1.821 1.821 0 0 1 1.469.15 3.659 3.659 0 0 1 1.823 3.928c-.343.88-1.458-.118-3.067-.751-.525-.204-.579 0-1.072-.172l.847-3.156Zm12.705 6c-.182 1.073 1.801.815 4.128 1.19 2.326.376 4.095 1.289 4.288.172.193-1.116-1.308-3.864-3.624-4.24-2.315-.375-4.61 1.761-4.792 2.877Zm-5.8 6.117c1.404-.429 2.594-.643 3.731-.998a13.53 13.53 0 0 0 1.672-.6c.569-.226 1.073-.548 1.78-.881a3.507 3.507 0 0 1-1.072 1.921 4.836 4.836 0 0 1-1.93 1.074 5.493 5.493 0 0 1-2.144.182 4.28 4.28 0 0 1-2.037-.697Z" />
  <path fill="#E8E8E8"
    d="M147.562 97.405c0 5.947-2.488 10.734-11.397 10.734-6.283 0-10.068-4.809-10.068-10.734s2.53-10.733 10.068-10.733c7.537 0 11.397 4.798 11.397 10.733Z" />
  <path fill="#263238"
    d="M135.093 98.747h-.204c-.343 0-.997 0-1.19-.59-.193-.59.246-.87.547-1.073.152-.122.292-.259.418-.408l-.097-.065c-.804-.558-6.186-.386-10.925.108a.608.608 0 0 1-.615-.315.614.614 0 0 1-.071-.233.635.635 0 0 1 .557-.687c1.684-.171 10.175-.998 11.794.108a1.295 1.295 0 0 1 .633 1.073 1.297 1.297 0 0 1-.354.923c.515 0 1.222-.118 2.037-.214 3.592-.43 9.649-1.149 14.903.257a.621.621 0 0 1-.322 1.202c-5.071-1.341-10.925-.644-14.431-.225-1.222.021-2.112.14-2.68.14ZM48.42 26.104a.61.61 0 0 1-.57-.376 14.933 14.933 0 0 1-.621-4.69l-1.469-5.174a.633.633 0 0 1 .708-.784l5.189.913c.257 0 1.501.408 1.726 3.22a7.014 7.014 0 0 0 1.18 3.327.603.603 0 0 1-.215.848.611.611 0 0 1-.847-.215 8.12 8.12 0 0 1-1.35-3.853c-.15-1.857-.751-2.147-.762-2.147l-4.16-.73 1.222 4.294c.005.06.005.122 0 .182a14.246 14.246 0 0 0 .515 4.294.624.624 0 0 1-.322.816.665.665 0 0 1-.225.075Zm22.772 11.602a.557.557 0 0 1-.322-.085c-1.415-.838-13.874-8.33-15.547-11.42a.634.634 0 0 1 0-.634 5.016 5.016 0 0 0 .612-2.04.624.624 0 1 1 1.243.108 6.81 6.81 0 0 1-.61 2.243c1.822 2.544 11.29 8.512 14.913 10.734a.601.601 0 0 1 .215.848.622.622 0 0 1-.504.246Zm63.065 212.79s-.59-9.081-1.073-9.521c-.482-.44-6.647.397-7.912-.236-1.265-.633-1.962 2.834-2.777 3.22-.815.387-2.53-1.266-1.362-3.424 1.169-2.157-3.634-6.032-4.835-5.935-1.201.096-8.856 3.22-14.775 3.585-5.918.365-10.625-.752-12.254.107-1.63.859-3.142 1.825-.869 4.444 2.273 2.619 7.505 7.803 14.453 7.867 6.948.065 8.577-1.073 9.435-2.082.858-1.009 2.144-2.844 3.077-.966.933 1.878.954 4.422 2.573 4.905 1.619.483 12.705 3.059 16.319-1.964Z" />
  <path fill="#263238"
    d="M123.9 259.748a20.88 20.88 0 0 1-4.825-.526 14.707 14.707 0 0 1-5.994-3.327 30.514 30.514 0 0 0-1.222-.966c-.772-.569-2.637-.365-4.782-.129a31.307 31.307 0 0 1-8.577.086 25.837 25.837 0 0 1-13.938-7.782c-1.984-2.458-1.169-4.615-.172-6.623a2.886 2.886 0 0 1 3.131-1.846.625.625 0 0 1 .14 1.096.617.617 0 0 1-.43.106c-.107 0-1.072-.171-1.736 1.203-.912 1.835-1.49 3.391 0 5.28a24.8 24.8 0 0 0 13.198 7.342 30.68 30.68 0 0 0 8.234-.097c2.498-.279 4.482-.493 5.64.365.429.312.847.655 1.276.999a13.47 13.47 0 0 0 5.511 3.091c3.366.837 8.866.665 12.233-1.074 3.12-1.61 3.624-3.112 2.144-6.171a.622.622 0 0 1 1.072-.548c1.823 3.65 1.073 5.914-2.637 7.814a18.744 18.744 0 0 1-8.266 1.707Zm-5.372-20.866a.6.6 0 0 1-.547-.343.607.607 0 0 1-.042-.462.594.594 0 0 1 .299-.354c.086-.065 2.885-1.975 5.94-14.555a.633.633 0 0 1 .263-.437.62.62 0 0 1 .735.019.618.618 0 0 1 .203.708c-3.216 13.352-6.24 15.199-6.572 15.36a.627.627 0 0 1-.279.064Zm12.598 4.337a.613.613 0 0 1-.611-.58c-.301-4.68 5.875-17.646 6.143-18.193a.622.622 0 0 1 1.072.536c-.064.129-6.293 13.224-6.025 17.571a.627.627 0 0 1-.579.666Z" />
  <path fill="#263238"
    d="M135.972 225.401c-4.074 0-11.397-2.147-14.903-4.218-3.667-2.147-2.552-10.068-1.576-17.066.118-.859.236-1.707.343-2.512.429-3.327.322-9.724.204-15.918-.129-7.309-.247-14.221.429-17.087 1.243-5.367 12.019-25.116 12.48-25.953a.594.594 0 0 1 .606-.324.591.591 0 0 1 .23.077.61.61 0 0 1 .246.837c-.107.204-11.15 20.501-12.362 25.642-.632 2.715-.504 9.875-.386 16.787.108 6.236.226 12.687-.214 16.1-.107.816-.225 1.664-.354 2.522-.868 6.279-1.962 14.104.976 15.821 3.656 2.147 12.244 4.541 15.407 3.961 1.554-.279 6.83-1.803 9.778-9.553 2.402-6.3 3.066-27.144 3.066-29.313a13.927 13.927 0 0 0-1.769-3.552c-1.49-2.512-2.144-3.746-1.544-4.444.601-.698 1.383-.172 1.705 0a18.021 18.021 0 0 1 3.742 2.512l.729.569v-.183a36.327 36.327 0 0 0-.815-2.544c-.514-1.513-.804-2.35-.321-2.909a1.234 1.234 0 0 1 1.233-.289c1.629.322 2.519.204 3.216-.451.836-.902 15.557-24.687 16.597-29.839 1.18-5.71 1.072-12.064-.225-14.147a78.943 78.943 0 0 0-3.388-4.926.624.624 0 0 1 .129-.87.606.606 0 0 1 .459-.124.602.602 0 0 1 .409.242s1.898 2.534 3.442 5.013c1.704 2.737 1.479 9.8.396 15.027-1.082 5.227-16.114 29.592-17.036 30.515-1.201 1.202-2.756 1.073-4.289.794.127.532.288 1.056.483 1.567.246.719.557 1.61.836 2.63.214.805.375 1.621-.193 1.985-.568.365-1.276-.118-2.466-1.073a17.097 17.097 0 0 0-3.485-2.351h-.064c.437.944.935 1.858 1.49 2.738 1.201 2.039 1.941 3.338 1.941 4.186 0 .214-.483 22.754-3.142 29.752-3.216 8.362-9.006 10.025-10.721 10.337a7.266 7.266 0 0 1-1.319.032Z" />
  <path fill="#263238"
    d="M192.368 205.813c-.547 0-1.072 0-1.49-.065-2.574-.193-11.515-3.134-19.407-5.721-4.739-1.556-9.209-3.026-11.44-3.617a20.668 20.668 0 0 1-9.949-6.44.619.619 0 0 1-.115-.726.606.606 0 0 1 .165-.201.613.613 0 0 1 .492-.128.617.617 0 0 1 .423.282 19.831 19.831 0 0 0 9.295 6c2.273.601 6.766 2.072 11.515 3.639 7.441 2.436 16.694 5.485 19.117 5.667 3.624.279 9.768-.494 11.794-3.756 2.026-3.263 2.348-11.217 1.79-13.17l-.075-.269c-.664-2.35-2.219-7.878-7.29-9.563-6.348-2.147-17.423-5.163-18.602-4.959-.247 0-.515.665-.676 1.02-.246.558-.504 1.127-1.072 1.137-.568.011-.944-.654-1.072-.933-.225-.451-.45-.977-.676-1.525-.343-.826-1.072-2.543-1.469-2.64-.511.472-.974.993-1.383 1.556-.986 1.267-1.651 2.147-2.401 1.836-.751-.311-.665-1.074-.665-1.374a11.83 11.83 0 0 1 .279-2.233c.343-1.738.354-2.339-.804-2.78-2.745-1.073-3.356-5.592-3.356-7.255a.62.62 0 0 1 .622-.623.62.62 0 0 1 .621.623c0 1.073.44 5.302 2.552 6.096 2.112.795 1.887 2.608 1.587 4.176-.114.616-.182 1.24-.204 1.867.268-.3.59-.719.837-1.073a10.14 10.14 0 0 1 1.576-1.76 1.254 1.254 0 0 1 1.072-.237c.986.269 1.587 1.707 2.284 3.36.193.462.386.923.568 1.32.289-.644.686-1.513 1.522-1.728 1.587-.386 15.107 3.596 19.299 4.991 5.683 1.9 7.43 8.082 8.084 10.412l.075.257c.644 2.233.408 10.497-1.929 14.179-2.22 3.467-7.849 4.358-11.494 4.358Zm82.868 40.615a4.461 4.461 0 0 1-.654 0 .622.622 0 0 1-.526-.709.62.62 0 0 1 .708-.525c.086 0 7.505.901 14.035-11.614 5.629-10.733 5.897-13.953 5.811-14.769-.204.15-.472.397-.719.622a7.544 7.544 0 0 1-2.208 1.567c-1.233.494-14.539 11.807-17.262 23.721a.619.619 0 0 1-.273.386.614.614 0 0 1-.467.076.607.607 0 0 1-.392-.271.618.618 0 0 1-.08-.47c2.852-12.472 16.555-24.01 18.013-24.601a6.156 6.156 0 0 0 1.822-1.32 3.504 3.504 0 0 1 1.577-1.073.908.908 0 0 1 .943.375c1.48 1.975-2.916 11.067-5.672 16.304-5.95 11.335-12.576 12.301-14.656 12.301Z" />
  <path fill="#263238"
    d="M276.179 244.968a.624.624 0 0 1-.59-.439.619.619 0 0 1 .041-.476.626.626 0 0 1 .152-.191c.086-.064 8.481-7.202 12.116-14.93a.621.621 0 0 1 1.126.526c-3.753 7.986-12.084 15.027-12.438 15.36a.63.63 0 0 1-.407.15Zm-1.469-14.995h-.053a.613.613 0 0 1-.569-.665c.847-10.208 5.822-20.737 14.786-31.277.375-.451.632-.752.739-.902.216-.347.413-.705.59-1.073.729-1.374 1.319-2.447 2.144-2.211.826.236 1.073 1.073.847 5.366-.45 8.587-6.293 25.202-6.54 25.9a.612.612 0 0 1-.307.401.618.618 0 0 1-.723-.093.622.622 0 0 1-.138-.716c.064-.172 6.036-17.12 6.432-25.556a23.357 23.357 0 0 0 0-3.703c-.225.354-.493.859-.664 1.181-.172.322-.472.891-.665 1.17-.193.279-.407.504-.826.998-8.791 10.347-13.659 20.629-14.484 30.568a.62.62 0 0 1-.569.612Z" />
  <path fill="#263238"
    d="M275.021 236.135h-.171a.623.623 0 0 1-.418-.773c3.613-12.387 12.04-27.907 12.126-28.1a.614.614 0 0 1 .607-.321c.08.009.158.034.229.074a.598.598 0 0 1 .299.367.608.608 0 0 1-.052.47c-.086.161-8.438 15.606-12.019 27.907a.621.621 0 0 1-.24.284.62.62 0 0 1-.361.092Z" />
  <path fill="#263238"
    d="M271.258 245.172a.608.608 0 0 1-.429-.172c-.429-.408-10.465-10.25-9.296-22.54 1.019-10.733 3.624-20.833 5.683-22.153a1.063 1.063 0 0 1 .965-.151c1.233.43 1.49 2.244 1.811 4.551a21.495 21.495 0 0 0 1.223 5.367c1.726 4.068 5.897 22.701 3.656 32.79a.625.625 0 0 1-.731.433.621.621 0 0 1-.481-.701c2.145-9.842-1.897-28.057-3.591-32.039a22.91 22.91 0 0 1-1.309-5.646c-.203-1.427-.45-3.22-.911-3.51-1.158.73-3.945 9.274-5.082 21.21-1.072 11.656 8.824 21.391 8.92 21.466a.618.618 0 0 1 .168.69.617.617 0 0 1-.596.384v.021Z" />
  <path fill="#263238"
    d="M272.115 243.701a.626.626 0 0 1-.568-.365c-5.361-11.871-6.229-28.54-6.229-28.701a.611.611 0 0 1 .579-.654.614.614 0 0 1 .432.167.618.618 0 0 1 .19.423c0 .161.911 16.604 6.133 28.261a.625.625 0 0 1-.311.816.571.571 0 0 1-.226.053Zm-.729-30.719a.62.62 0 0 1-.622-.579c-.954-16.379 5.833-30.515 9.092-37.299a36.223 36.223 0 0 0 1.598-3.606c.718-2.415 1.64-2.823 2.273-2.737.933.118 2.198 1.256 2.423 9.574.29 10.497-2.766 28.851-2.788 28.98a.613.613 0 0 1-.252.407.61.61 0 0 1-.222.1.608.608 0 0 1-.472-.078.626.626 0 0 1-.287-.633c0-.182 3.056-18.429 2.777-28.797-.203-7.739-1.351-8.372-1.361-8.383a4.283 4.283 0 0 0-.901 1.867 34.373 34.373 0 0 1-1.673 3.789c-3.216 6.698-9.896 20.63-8.963 36.687a.616.616 0 0 1-.159.45.617.617 0 0 1-.431.205l-.032.053Z" />
  <path fill="#263238"
    d="M274.474 227.322a.633.633 0 0 1-.622-.558c-.203-1.857.461-4.69 1.684-9.842a502.398 502.398 0 0 0 2.219-9.821 276.773 276.773 0 0 0 3.956-27.907.644.644 0 0 1 .676-.569.62.62 0 0 1 .421.22.602.602 0 0 1 .136.456 278.821 278.821 0 0 1-3.967 28.057 531.318 531.318 0 0 1-2.241 9.832c-1.179 5.023-1.833 7.782-1.651 9.435a.625.625 0 0 1-.547.687l-.064.01Zm9.564 22.219a.638.638 0 0 1-.6-.44.623.623 0 0 1 .418-.773l1.265-.397a1.07 1.07 0 0 1-.172-.118.905.905 0 0 1-.257-.902 6.194 6.194 0 0 1 .933-1.782l.139-.204c-2.326.88-5.554 1.836-7.773.87a.627.627 0 0 1-.381-.578.607.607 0 0 1 .396-.568.633.633 0 0 1 .478.008c2.145.923 5.854-.515 7.087-.988.44-.171 1.244-.483 1.673.065.429.547 0 1.191-.579 2.082-.204.301-.429.644-.59.945.354-.086.836-.236 1.222-.355a11.631 11.631 0 0 1 3.217-.686c.686 0 .89.332.922.611.086.58.15.956-7.205 3.22l-.193-.01Zm-14.817-4.734a.556.556 0 0 1-.29-.075 18.772 18.772 0 0 1-4.567-3.51c-1.019-1.073-1.769-1.363-2.145-1.266a.39.39 0 0 0-.172.136.388.388 0 0 0-.074.207.898.898 0 0 1-.558.73c-.589.225-1.168-.247-1.844-.794l-.171-.129v.215c.107 1.255.278 3.144-1.073 3.767a.615.615 0 0 1-.683-.113.632.632 0 0 1-.197-.436.615.615 0 0 1 .168-.447.62.62 0 0 1 .198-.142c.547-.247.418-1.674.343-2.522-.075-.848-.129-1.535.386-1.825.514-.29 1.126.14 1.79.666l.515.408a1.567 1.567 0 0 1 1.008-.913c.547-.161 1.705-.161 3.356 1.61a17.882 17.882 0 0 0 4.224 3.22.623.623 0 0 1 .268.848.632.632 0 0 1-.482.365Zm-215.055-.762a24.64 24.64 0 0 1-3.313-.226c-4.868-.654-11.965-3.22-18.098-11.42-10.175-13.664-10.572-24.783-10.722-29.538 0-.719 0-1.277-.096-1.685-.268-2.147 0-4.68 1.254-5.206.322-.15.976-.258 1.673.59.451.63.718 1.374.772 2.147.225 1.374.482 2.941 3.516 4.712 6.348 3.682 27.49 17.27 33.345 37.449a.62.62 0 0 1-.407.824.617.617 0 0 1-.684-.244.622.622 0 0 1-.1-.237c-5.725-19.728-26.535-33.091-32.775-36.719-3.55-2.061-3.882-4.1-4.118-5.581a3.126 3.126 0 0 0-.503-1.524.783.783 0 0 0-.28-.247c-.203.129-.76 1.524-.46 3.918 0 .429.075 1.073.107 1.792.16 4.637.547 15.488 10.486 28.841 5.854 7.878 12.587 10.282 17.208 10.926a21.49 21.49 0 0 0 8.749-.515.622.622 0 0 1 .815.638.612.612 0 0 1-.43.543 20.175 20.175 0 0 1-5.939.762Z" />
  <path fill="#263238"
    d="M60.041 241.855h-.107c-.397-.075-9.875-1.771-20.092-10.894a47.29 47.29 0 0 1-13.317-21.66.622.622 0 1 1 1.212-.29 45.871 45.871 0 0 0 12.93 21.038c9.928 8.876 19.385 10.583 19.481 10.594a.63.63 0 0 1 .504.719.61.61 0 0 1-.61.493Zm6.069-.214a.613.613 0 0 1-.665-.558.616.616 0 0 1 .558-.666c.117 0 11.793-2.458 12.233-24.129.536-23.903-4.289-35.355-7.28-38.35-.622-.633-1.169-.934-1.437-.826-1.147.45-1.244 5.721-1.297 8.865-.086 4.208-2.144 8.254-4.91 13.868a386.461 386.461 0 0 0-3.153 6.44c-4.192 9.027-1.94 24.601-1.919 24.751a.623.623 0 0 1-1.16.435.625.625 0 0 1-.062-.252c-.097-.644-2.338-16.1 2.015-25.46 1.073-2.415 2.22-4.583 3.217-6.504 2.723-5.464 4.696-9.403 4.771-13.331.097-5.582.3-9.295 2.08-10.004 1.212-.483 2.391.719 2.777 1.074 4.15 4.196 8.116 17.967 7.644 39.252-.514 22.754-12.737 25.223-13.252 25.32l-.16.075Zm-14.485 5.538c-3.656-.128-3.785-.772-3.85-1.073-.064-.301.194-.816.826-1.073a5.438 5.438 0 0 1 2.83-.44 5.365 5.365 0 0 0 2.145-.204c1.64-.505 1.898-1.127 1.898-1.127a.615.615 0 0 1 .5-.462.62.62 0 0 1 .24.011.642.642 0 0 1 .46.762c0 .204-.396 1.288-2.733 2.007a6.771 6.771 0 0 1-2.606.258 5.426 5.426 0 0 0-1.383 0 18.59 18.59 0 0 0 1.684.128.621.621 0 0 1 .621.623.623.623 0 0 1-.621.623l-.011-.033Z" />
  <path fill="#263238"
    d="M70.42 243.648a.625.625 0 0 1-.45-.193.623.623 0 0 1 0-.88c.392-.36.751-.755 1.072-1.181l-.065.064c-.44.526-1.072 1.31-1.962.87a3.083 3.083 0 0 1-1.404-1.911.623.623 0 0 1 1.211-.29c.116.441.391.824.772 1.074a3.92 3.92 0 0 1 .44-.569c.45-.526 1.211-1.417 2.144-.794a1.065 1.065 0 0 1 .461.805c.065.998-1.222 2.307-1.78 2.823a.662.662 0 0 1-.44.182Zm-4.385-4.723a.64.64 0 0 1-.247 0 .612.612 0 0 1-.31-.826 100.137 100.137 0 0 0 6.582-47.56.635.635 0 0 1 .547-.698.62.62 0 0 1 .459.129.61.61 0 0 1 .227.419c3.088 26.168-6.593 47.999-6.69 48.225a.615.615 0 0 1-.24.235.615.615 0 0 1-.328.076Zm-8.792-10.239a.627.627 0 0 1-.558-.333c-.075-.161-8.191-16.304-5.575-40.487a120.484 120.484 0 0 1 7.227-30.718c1.243-3.446 2.058-5.721 1.833-7.138-.118-.73-1.072-7.17.697-7.964.354-.161.933-.183 1.597.633 1.866 2.297 7.505 19.685 7.173 34.035a.627.627 0 0 1-.384.576.626.626 0 0 1-.677-.135.632.632 0 0 1-.183-.441c.333-14.468-5.457-31.459-6.894-33.273l-.171-.182c-.322.686-.44 3.305.075 6.536.268 1.728-.59 4.122-1.898 7.75a119.908 119.908 0 0 0-7.162 30.429c-2.573 23.796 5.36 39.627 5.447 39.788a.618.618 0 0 1-.076.688.61.61 0 0 1-.192.15.637.637 0 0 1-.28.086Z" />
  <path fill="#263238"
    d="M57.447 214.732a.623.623 0 0 1-.622-.601c0-.226-.14-5.453 1.887-16.766C60.738 186.052 63 159.273 63 158.993a.643.643 0 0 1 .676-.568.596.596 0 0 1 .421.22.613.613 0 0 1 .137.456c0 .268-2.306 27.22-4.29 38.49-1.983 11.27-1.876 16.443-1.865 16.497a.644.644 0 0 1-.61.644h-.022Zm-15.333-.827a.64.64 0 0 1-.471-.214c-.086-.108-8.985-10.444-11.161-24.322-2.177-13.878-3.099-18.504-4.503-20.501-.815-1.17-.848-2.426-.076-3.145.419-.397 2.145-1.449 5.95 1.685 5.05 4.133 16.952 19.32 19.954 29.227a.623.623 0 0 1-.886.698.62.62 0 0 1-.304-.343c-2.884-9.521-14.721-24.687-19.556-28.616-2.413-1.975-3.903-2.146-4.29-1.738-.235.225-.235.815.258 1.513 1.566 2.222 2.456 6.719 4.707 21.027 2.144 13.524 10.797 23.613 10.882 23.699a.622.622 0 0 1-.504 1.03Z" />
  <path fill="#263238"
    d="M55.753 225.262a.629.629 0 0 1-.483-.226c0-.064-5.232-6.332-12.115-16.347-6.883-10.014-10.625-28.196-10.786-28.98a.621.621 0 0 1 .954-.635c.136.09.232.229.268.388 0 .193 3.806 18.633 10.593 28.519 6.787 9.885 11.998 16.186 12.051 16.25a.634.634 0 0 1-.482 1.031Zm-18.098-50.147a.63.63 0 0 1-.59-.451c0-.129-3.946-13.288-5.168-21.853-.29-2.071-.568-3.767-.793-5.163-.6-3.638-.826-5.012-.107-5.699a1.528 1.528 0 0 1 1.404-.29c2.016.397 18.988 13.363 23.084 28.336a.625.625 0 0 1-.435.78.622.622 0 0 1-.766-.458c-3.892-14.189-20.264-27.08-22.119-27.445a.928.928 0 0 0-.332 0c-.215.311.118 2.297.493 4.605.225 1.384.504 3.102.804 5.184 1.2 8.479 5.082 21.542 5.125 21.67a.623.623 0 0 1-.418.773.487.487 0 0 1-.182.011Z" />
  <path fill="#263238"
    d="M51.324 193.673a.608.608 0 0 1-.61-.504 38.845 38.845 0 0 0-6.015-13.331c-4.975-7.256-7.999-23.442-8.117-24.129a.621.621 0 0 1 .493-.73.645.645 0 0 1 .73.505c0 .161 3.087 16.615 7.912 23.613a39.365 39.365 0 0 1 6.219 13.814.617.617 0 0 1-.277.634.62.62 0 0 1-.227.085l-.108.043Zm7.323-34.948a.623.623 0 0 1-.6-.644c.225-5.935-.504-9.853-2.605-13.953l-.247-.462c-4.139-8.146-8.996-17.935-9.703-21.327-.461-2.147-1.18-3.016-1.523-3.027-.075 0-.965.075-2.047 3.671-1.845 6.075 2.487 28.712 2.54 28.98a.622.622 0 1 1-1.222.236c-.182-.944-4.439-23.173-2.509-29.538.922-3.07 1.984-4.562 3.217-4.562h.01c1.609.065 2.37 2.544 2.681 4.015.772 3.66 7.183 16.271 9.65 21.016l.235.472c2.209 4.293 2.981 8.426 2.745 14.587a.624.624 0 0 1-.622.536Z" />
  <path fill="#263238"
    d="M54.209 168.664a.627.627 0 0 1-.622-.568c0-.076-.6-7.954-1.19-12.977-.59-5.023-6.433-14.275-6.52-14.361a.632.632 0 0 1 .681-.948.63.63 0 0 1 .392.282c.247.387 6.09 9.66 6.701 14.877.611 5.216 1.19 12.955 1.2 13.03a.625.625 0 0 1-.567.665h-.075Z" />
  <ellipse cx="169.938" cy="173.344" fill="#263238" rx=".536" ry=".537" />
  <ellipse cx="176.907" cy="174.954" fill="#263238" rx="1.072" ry="1.073" />
  <ellipse cx="169.402" cy="172.808" fill="#263238" rx="1.072" ry="1.073" />
  <ellipse cx=".807" cy="4.036" fill="#263238" rx=".807" ry="4.036"
    transform="rotate(26.518 -272.189 346.382) skewX(.05)" />
</svg>