<svg aria-hidden="true" style="position: absolute; width: 0; height: 0; overflow: hidden;" version="1.1" xmlns="http://www.w3.org/2000/svg" xmlns:xlink="http://www.w3.org/1999/xlink">
<defs>
<symbol id="burger-menu_button-close-sm" viewBox="0 0 32 32">
<path   d="M17.88 16l5.733-5.72c0.251-0.251 0.392-0.592 0.392-0.947s-0.141-0.696-0.392-0.947c-0.251-0.251-0.592-0.392-0.947-0.392s-0.696 0.141-0.947 0.392l-5.72 5.733-5.72-5.733c-0.251-0.251-0.592-0.392-0.947-0.392s-0.696 0.141-0.947 0.392-0.392 0.592-0.392 0.947c0 0.355 0.141 0.696 0.392 0.947l5.733 5.72-5.733 5.72c-0.125 0.124-0.224 0.271-0.292 0.434s-0.103 0.337-0.103 0.513 0.035 0.35 0.103 0.513c0.068 0.162 0.167 0.31 0.292 0.434 0.124 0.125 0.271 0.224 0.434 0.292s0.337 0.103 0.513 0.103c0.176 0 0.35-0.035 0.513-0.103s0.31-0.167 0.434-0.292l5.72-5.733 5.72 5.733c0.124 0.125 0.271 0.224 0.434 0.292s0.337 0.103 0.513 0.103 0.35-0.035 0.513-0.103c0.162-0.068 0.31-0.167 0.434-0.292 0.125-0.124 0.224-0.271 0.292-0.434s0.102-0.337 0.102-0.513c0-0.176-0.035-0.35-0.102-0.513s-0.167-0.31-0.292-0.434l-5.733-5.72z"></path>
</symbol>
<symbol id="burger-menu_button-close-md" viewBox="0 0 32 32">
<path   d="M17.88 16l5.733-5.72c0.251-0.251 0.392-0.592 0.392-0.947s-0.141-0.696-0.392-0.947-0.592-0.392-0.947-0.392c-0.355 0-0.696 0.141-0.947 0.392l-5.72 5.733-5.72-5.733c-0.251-0.251-0.592-0.392-0.947-0.392s-0.696 0.141-0.947 0.392-0.392 0.592-0.392 0.947c0 0.355 0.141 0.696 0.392 0.947l5.733 5.72-5.733 5.72c-0.125 0.124-0.224 0.271-0.292 0.434s-0.103 0.337-0.103 0.513c0 0.176 0.035 0.35 0.103 0.513s0.167 0.31 0.292 0.434c0.124 0.125 0.271 0.224 0.434 0.292s0.337 0.103 0.513 0.103c0.176 0 0.35-0.035 0.513-0.103s0.31-0.167 0.434-0.292l5.72-5.733 5.72 5.733c0.124 0.125 0.271 0.224 0.434 0.292s0.337 0.103 0.513 0.103c0.176 0 0.35-0.035 0.513-0.103s0.31-0.167 0.434-0.292c0.125-0.124 0.224-0.271 0.292-0.434s0.102-0.337 0.102-0.513c0-0.176-0.035-0.35-0.102-0.513s-0.167-0.31-0.292-0.434l-5.733-5.72z"></path>
</symbol>
<symbol id="header_burger-button-md" viewBox="0 0 56 32">
<path   d="M1.882 0h52.706c1.040 0 1.882 0.843 1.882 1.882v1.882c0 1.040-0.843 1.882-1.882 1.882h-52.706c-1.040 0-1.882-0.843-1.882-1.882v-1.882c0-1.040 0.843-1.882 1.882-1.882z"></path>
<path   d="M1.882 13.176h52.706c1.040 0 1.882 0.843 1.882 1.882v1.882c0 1.040-0.843 1.882-1.882 1.882h-52.706c-1.040 0-1.882-0.843-1.882-1.882v-1.882c0-1.040 0.843-1.882 1.882-1.882z"></path>
<path   d="M1.882 26.353h36.178c1.040 0 1.882 0.843 1.882 1.882v1.882c0 1.040-0.843 1.882-1.882 1.882h-36.178c-1.040 0-1.882-0.843-1.882-1.882v-1.882c0-1.040 0.843-1.882 1.882-1.882z"></path>
</symbol>
<symbol id="header_burger-button-sm" viewBox="0 0 57 32">
<path   d="M1.333 0h53.804c0.736 0 1.333 0.597 1.333 1.333v2.98c0 0.736-0.597 1.333-1.333 1.333h-53.804c-0.736 0-1.333-0.597-1.333-1.333v-2.98c0-0.736 0.597-1.333 1.333-1.333z"></path>
<path   d="M1.333 13.176h53.804c0.736 0 1.333 0.597 1.333 1.333v2.98c0 0.736-0.597 1.333-1.333 1.333h-53.804c-0.736 0-1.333-0.597-1.333-1.333v-2.98c0-0.736 0.597-1.333 1.333-1.333z"></path>
<path   d="M1.333 26.353h37.276c0.736 0 1.333 0.597 1.333 1.333v2.98c0 0.736-0.597 1.333-1.333 1.333h-37.276c-0.736 0-1.333-0.597-1.333-1.333v-2.98c0-0.736 0.597-1.333 1.333-1.333z"></path>
</symbol>
<symbol id="header_burger-button-lg" viewBox="0 0 30 17">
  <rect width="30" height="3" rx="1"  />
  <rect y="7" width="30" height="3" rx="1"  />
  <rect y="14" width="21.2195" height="3" rx="1"  />
  </symbol>
</defs>
</svg>
